<svg id="splitsvg" version="1.1" xmlns="http://www.w3.org/2000/svg" xmlns:xlink="http://www.w3.org/1999/xlink" width="1380" height="860"><g id="svgg"><path id="path0" d="M0.040 97.412 C 0.062 150.989,0.103 194.077,0.133 193.164 C 0.582 179.089,3.122 161.778,6.636 148.845 C 19.628 101.026,48.289 60.960,88.965 33.756 C 100.965 25.730,116.250 17.748,127.441 13.663 C 127.979 13.467,129.253 12.986,130.273 12.593 C 159.725 1.262,195.975 -2.586,228.613 2.155 C 236.999 3.373,249.075 5.925,254.395 7.604 C 255.039 7.807,256.665 8.298,258.008 8.694 C 277.735 14.511,296.467 23.676,315.234 36.693 C 323.356 42.326,334.689 51.896,341.602 58.960 C 362.313 80.122,376.954 102.845,387.048 129.492 C 404.000 174.246,404.094 225.086,387.307 269.824 C 386.864 271.006,386.339 272.412,386.141 272.949 C 383.451 280.244,376.440 294.602,372.076 301.758 C 371.781 302.241,370.894 303.691,370.104 304.980 C 353.830 331.562,328.444 356.571,302.313 371.766 C 295.793 375.557,287.048 380.166,283.301 381.785 C 282.764 382.017,281.709 382.483,280.957 382.820 C 279.040 383.681,273.729 385.904,272.559 386.336 C 272.021 386.535,270.747 387.015,269.727 387.403 C 250.975 394.537,227.950 399.125,207.588 399.785 C 204.972 399.870,247.195 399.953,301.416 399.969 L 400.000 400.000 400.000 200.000 L 400.000 0.000 200.000 0.000 L 0.000 0.000 0.040 97.412 M114.925 78.115 C 113.362 78.917,113.993 77.778,102.636 100.293 C 99.439 106.631,95.968 113.486,94.922 115.527 C 93.877 117.568,89.625 125.962,85.475 134.180 C 81.325 142.397,77.028 150.879,75.927 153.027 L 73.926 156.934 71.973 157.964 C 63.420 162.476,47.641 170.560,47.560 170.472 C 47.529 170.438,43.967 163.379,39.644 154.785 C 31.133 137.863,31.237 138.046,29.692 137.256 C 26.249 135.496,22.229 138.650,23.215 142.337 C 23.339 142.800,26.415 149.043,30.051 156.209 C 33.687 163.375,39.102 174.072,42.083 179.980 C 45.065 185.889,48.566 192.810,49.865 195.361 L 52.225 200.000 49.865 204.639 C 48.566 207.190,45.065 214.111,42.083 220.020 C 39.102 225.928,33.687 236.625,30.051 243.791 C 26.415 250.957,23.339 257.200,23.215 257.663 C 22.229 261.350,26.249 264.504,29.692 262.744 C 31.237 261.954,31.133 262.137,39.645 245.215 C 43.968 236.621,47.530 229.562,47.561 229.528 C 47.641 229.440,63.436 237.532,71.973 242.036 L 73.926 243.066 75.927 246.973 C 77.028 249.121,81.325 257.603,85.475 265.820 C 89.625 274.038,93.877 282.432,94.922 284.473 C 95.968 286.514,99.439 293.369,102.636 299.707 C 114.057 322.348,113.370 321.114,114.998 321.903 L 115.860 322.320 129.659 322.181 C 137.248 322.105,143.896 322.010,144.434 321.971 C 144.971 321.931,150.815 321.839,157.422 321.766 C 164.028 321.694,170.752 321.576,172.363 321.506 L 175.293 321.379 182.031 317.891 C 185.737 315.973,191.296 313.088,194.385 311.480 L 200.000 308.557 205.615 311.480 C 208.704 313.088,214.263 315.973,217.969 317.891 L 224.707 321.379 227.637 321.506 C 229.248 321.576,235.972 321.694,242.578 321.766 C 249.185 321.839,255.029 321.931,255.566 321.971 C 256.104 322.010,262.752 322.105,270.341 322.181 L 284.140 322.320 285.002 321.903 C 286.623 321.118,285.946 322.330,297.071 300.293 C 299.999 294.492,303.734 287.109,305.371 283.887 C 307.009 280.664,310.700 273.369,313.574 267.676 C 322.751 249.496,325.974 243.214,326.222 243.018 C 326.356 242.913,329.058 241.486,332.227 239.846 C 335.396 238.207,338.971 236.353,340.172 235.726 C 346.261 232.550,352.372 229.456,352.431 229.519 C 352.467 229.558,356.033 236.621,360.356 245.215 C 368.867 262.137,368.763 261.954,370.308 262.744 C 373.751 264.504,377.771 261.350,376.785 257.663 C 376.661 257.200,373.585 250.957,369.949 243.791 C 366.313 236.625,360.898 225.928,357.917 220.020 C 354.935 214.111,351.434 207.190,350.135 204.639 L 347.775 200.000 350.135 195.361 C 351.434 192.810,354.935 185.889,357.917 179.980 C 360.898 174.072,366.313 163.375,369.949 156.209 C 373.585 149.043,376.661 142.800,376.785 142.337 C 377.771 138.650,373.751 135.496,370.308 137.256 C 368.763 138.046,368.867 137.863,360.356 154.785 C 356.033 163.379,352.467 170.442,352.431 170.481 C 352.372 170.544,346.261 167.450,340.172 164.274 C 338.971 163.647,335.396 161.793,332.227 160.154 C 329.058 158.514,326.356 157.087,326.222 156.982 C 325.974 156.786,322.751 150.504,313.574 132.324 C 310.700 126.631,307.009 119.336,305.371 116.113 C 303.734 112.891,299.999 105.508,297.071 99.707 C 285.946 77.670,286.623 78.882,285.002 78.097 L 284.140 77.680 270.341 77.819 C 262.752 77.895,256.104 77.990,255.566 78.029 C 255.029 78.069,249.185 78.161,242.578 78.234 C 235.972 78.306,229.248 78.424,227.637 78.494 L 224.707 78.621 217.969 82.109 C 214.263 84.027,208.704 86.912,205.615 88.520 L 200.000 91.443 194.385 88.520 C 191.296 86.912,185.737 84.027,182.031 82.109 L 175.293 78.621 172.363 78.494 C 170.752 78.423,163.984 78.304,157.324 78.229 C 150.664 78.154,144.863 78.064,144.434 78.030 C 139.951 77.669,115.657 77.739,114.925 78.115 M200.494 102.020 C 200.706 102.164,202.637 103.187,204.785 104.293 C 206.934 105.400,210.581 107.291,212.891 108.495 C 218.392 111.365,221.612 113.038,228.125 116.407 C 231.079 117.936,234.551 119.736,235.840 120.408 C 237.129 121.079,239.546 122.335,241.211 123.197 C 242.876 124.060,247.402 126.412,251.270 128.425 C 255.137 130.437,261.772 133.883,266.016 136.083 C 270.259 138.282,274.873 140.677,276.270 141.406 C 283.747 145.306,301.279 154.412,313.672 160.833 C 316.519 162.307,318.946 163.616,319.066 163.740 C 319.187 163.863,323.387 172.073,328.401 181.982 L 337.516 200.000 328.401 218.018 C 323.387 227.927,319.187 236.137,319.066 236.260 C 318.946 236.384,316.519 237.693,313.672 239.167 C 301.279 245.588,283.747 254.694,276.270 258.594 C 274.873 259.323,270.259 261.718,266.016 263.917 C 261.772 266.117,255.137 269.563,251.270 271.575 C 247.402 273.588,242.876 275.940,241.211 276.803 C 239.546 277.665,237.129 278.921,235.840 279.592 C 234.551 280.264,231.079 282.064,228.125 283.593 C 221.686 286.924,218.466 288.596,212.891 291.504 C 210.581 292.709,207.021 294.553,204.980 295.603 C 202.939 296.653,200.984 297.683,200.635 297.893 C 200.005 298.271,199.995 298.271,199.365 297.893 C 199.016 297.683,197.061 296.653,195.020 295.603 C 192.979 294.553,189.419 292.709,187.109 291.504 C 181.534 288.596,178.314 286.924,171.875 283.593 C 168.921 282.064,165.449 280.264,164.160 279.592 C 162.871 278.921,160.454 277.665,158.789 276.803 C 157.124 275.940,152.598 273.588,148.730 271.575 C 144.863 269.563,138.228 266.117,133.984 263.917 C 129.741 261.718,125.127 259.323,123.730 258.594 C 116.253 254.694,98.721 245.588,86.328 239.167 C 83.481 237.693,81.054 236.384,80.934 236.260 C 80.813 236.137,76.613 227.927,71.599 218.018 L 62.484 200.000 71.599 181.982 C 76.613 172.073,80.813 163.863,80.934 163.740 C 81.054 163.616,83.481 162.307,86.328 160.833 C 98.721 154.412,116.253 145.306,123.730 141.406 C 125.127 140.677,129.741 138.282,133.984 136.083 C 138.228 133.883,144.863 130.437,148.730 128.425 C 152.598 126.412,157.124 124.060,158.789 123.197 C 160.454 122.335,162.871 121.079,164.160 120.408 C 165.449 119.736,168.921 117.936,171.875 116.407 C 179.213 112.611,182.229 111.044,186.914 108.594 C 189.116 107.442,192.764 105.551,195.020 104.392 C 197.275 103.232,199.294 102.165,199.506 102.021 C 199.982 101.696,200.018 101.696,200.494 102.020 M143.555 175.504 C 135.165 177.718,132.337 188.201,138.475 194.338 C 145.511 201.375,157.593 196.388,157.614 186.438 C 157.630 179.220,150.497 173.673,143.555 175.504 M250.907 175.505 C 246.056 176.679,242.375 181.402,242.386 186.438 C 242.407 196.388,254.489 201.375,261.525 194.338 C 269.535 186.328,261.929 172.837,250.907 175.505 M0.041 302.490 L 0.000 400.000 98.486 399.958 C 152.654 399.935,195.874 399.893,194.531 399.865 C 170.212 399.364,144.981 393.851,121.191 383.840 C 90.104 370.759,60.637 347.519,39.754 319.613 C 37.962 317.218,37.563 316.663,35.131 313.184 C 29.278 304.813,22.944 293.681,18.348 283.691 C 16.110 278.826,15.602 277.601,12.109 268.652 C 5.608 251.992,0.685 226.584,0.133 206.836 C 0.104 205.815,0.063 248.860,0.041 302.490 M144.141 240.406 C 136.748 242.834,138.177 253.418,145.898 253.418 C 148.193 253.418,149.181 253.000,150.822 251.334 L 151.937 250.202 171.623 256.035 L 191.309 261.867 191.707 263.024 C 194.532 271.226,205.468 271.226,208.293 263.024 L 208.691 261.867 228.377 256.035 L 248.063 250.202 249.178 251.334 C 253.574 255.797,260.645 253.047,260.645 246.875 C 260.645 238.911,248.797 237.814,247.543 245.661 L 247.421 246.422 245.048 247.116 C 243.743 247.497,238.765 248.970,233.984 250.388 C 215.118 255.985,208.893 257.812,208.699 257.809 C 208.587 257.807,208.199 257.173,207.836 256.401 C 204.684 249.694,195.316 249.694,192.164 256.401 C 191.397 258.033,191.619 257.971,189.145 257.237 C 179.499 254.375,156.832 247.665,154.952 247.115 L 152.579 246.422 152.457 245.661 C 151.884 242.073,147.499 239.303,144.141 240.406 M147.488 249.225 C 147.235 249.437,146.927 249.606,146.805 249.603 C 146.682 249.599,146.790 249.424,147.043 249.212 C 147.297 249.001,147.604 248.831,147.727 248.835 C 147.849 248.838,147.742 249.014,147.488 249.225 M252.957 249.212 C 253.210 249.424,253.318 249.599,253.195 249.603 C 253.073 249.606,252.765 249.437,252.512 249.225 C 252.258 249.014,252.151 248.838,252.273 248.835 C 252.396 248.831,252.703 249.001,252.957 249.212  M -25 0 L -5 0 L -5 20 L -25 20 Z M 405 0 L 425 0 L 425 20 L 405 20 Z" stroke="none" fill="#fbfbfb" fill-rule="evenodd" transform="translate(30,0)"></path><path id="path1" d="M191.699 0.506 C 191.055 0.544,188.682 0.672,186.426 0.791 C 184.170 0.909,181.665 1.091,180.859 1.194 C 180.054 1.298,177.476 1.598,175.132 1.861 C 172.787 2.124,170.809 2.376,170.735 2.421 C 170.662 2.467,169.284 2.693,167.674 2.924 C 166.064 3.155,164.415 3.430,164.011 3.536 C 163.607 3.641,162.113 3.943,160.691 4.207 C 156.830 4.924,152.254 5.992,147.363 7.316 C 144.277 8.151,137.845 10.080,137.207 10.360 C 136.992 10.455,135.454 10.987,133.789 11.542 C 132.124 12.098,130.674 12.617,130.566 12.696 C 130.459 12.775,130.020 12.951,129.590 13.087 C 128.621 13.393,122.845 15.709,121.765 16.223 C 121.328 16.431,120.911 16.602,120.837 16.602 C 120.764 16.602,120.111 16.875,119.385 17.210 C 116.281 18.642,115.642 18.938,114.160 19.635 C 111.388 20.939,109.717 21.776,107.325 23.059 C 106.036 23.751,104.570 24.536,104.068 24.805 C 98.815 27.611,90.815 32.583,85.645 36.254 C 80.585 39.846,79.228 40.864,75.293 44.013 C 67.041 50.618,59.648 57.552,51.936 65.922 C 50.939 67.003,45.515 73.361,44.685 74.421 C 44.393 74.793,43.525 75.889,42.755 76.855 C 39.146 81.389,34.156 88.453,30.960 93.555 C 29.207 96.352,28.645 97.293,25.941 101.953 C 23.337 106.440,19.573 113.927,17.299 119.141 C 15.127 124.120,14.046 126.737,13.146 129.199 C 11.853 132.734,11.446 133.901,10.527 136.719 C 9.984 138.384,9.421 140.054,9.275 140.430 C 8.902 141.396,7.567 146.145,6.421 150.586 C 5.087 155.752,3.829 161.765,3.038 166.752 C 2.778 168.393,2.474 170.194,2.363 170.756 C 2.251 171.318,1.975 173.444,1.749 175.481 C 1.523 177.519,1.305 179.239,1.265 179.304 C 0.211 181.010,0.211 218.991,1.266 220.697 C 1.306 220.762,1.523 222.481,1.749 224.519 C 1.975 226.556,2.251 228.682,2.363 229.244 C 2.474 229.806,2.778 231.607,3.038 233.248 C 3.922 238.823,6.335 250.038,7.014 251.731 C 7.127 252.014,7.393 252.949,7.604 253.809 C 8.271 256.523,8.933 258.619,12.042 267.871 C 12.295 268.623,12.587 269.414,12.692 269.629 C 12.796 269.844,13.094 270.591,13.354 271.289 C 17.221 281.678,23.174 293.787,29.582 304.297 C 30.944 306.531,36.307 314.640,36.663 315.005 C 36.803 315.148,37.001 315.423,37.105 315.616 C 37.310 316.000,41.504 321.623,43.066 323.610 C 49.159 331.356,57.175 340.000,64.652 346.885 C 69.796 351.622,74.018 355.144,79.883 359.590 C 81.226 360.607,82.939 361.873,83.691 362.403 C 84.443 362.932,85.103 363.416,85.156 363.477 C 85.249 363.583,92.117 368.137,93.555 369.045 C 97.710 371.671,104.137 375.395,106.934 376.798 C 107.256 376.959,109.014 377.844,110.840 378.764 C 114.165 380.438,118.491 382.473,120.508 383.311 C 121.099 383.556,122.241 384.039,123.047 384.384 C 125.467 385.420,129.463 386.960,131.934 387.810 C 132.686 388.069,133.477 388.363,133.691 388.465 C 134.149 388.681,137.210 389.685,140.527 390.708 C 141.816 391.105,143.311 391.569,143.848 391.738 C 147.699 392.950,155.734 394.901,160.636 395.814 C 162.028 396.073,163.434 396.367,163.761 396.467 C 164.088 396.567,165.410 396.790,166.699 396.964 C 167.988 397.138,169.702 397.406,170.508 397.561 C 171.313 397.716,173.681 398.025,175.769 398.248 C 177.856 398.472,179.620 398.689,179.689 398.731 C 181.310 399.733,216.948 399.730,220.313 398.727 C 220.474 398.679,222.549 398.420,224.925 398.152 C 227.300 397.884,229.366 397.619,229.515 397.563 C 229.663 397.507,231.191 397.241,232.910 396.971 C 238.282 396.127,249.838 393.655,251.557 392.982 C 251.829 392.876,252.622 392.648,253.320 392.475 C 255.307 391.983,262.162 389.924,262.793 389.629 C 263.008 389.529,263.843 389.236,264.648 388.979 C 266.738 388.311,268.947 387.532,269.629 387.223 C 269.951 387.077,270.435 386.892,270.703 386.811 C 271.319 386.626,277.176 384.276,278.223 383.793 C 278.652 383.595,279.663 383.155,280.469 382.815 C 285.115 380.852,297.314 374.630,300.719 372.487 C 301.169 372.204,301.988 371.709,302.539 371.387 C 305.206 369.828,309.950 366.786,313.020 364.665 C 313.862 364.084,315.096 363.205,315.762 362.712 C 316.428 362.220,317.471 361.465,318.081 361.035 C 318.690 360.605,319.288 360.166,319.409 360.059 C 319.530 359.951,320.156 359.470,320.801 358.990 C 323.197 357.204,331.453 350.474,331.934 349.915 C 332.041 349.790,332.964 348.948,333.984 348.043 C 341.470 341.409,351.915 330.091,358.250 321.752 C 363.110 315.353,366.155 310.934,370.391 304.132 C 370.702 303.632,371.153 302.915,371.392 302.539 C 371.631 302.163,372.247 301.108,372.760 300.195 C 373.273 299.282,374.260 297.524,374.954 296.289 C 376.727 293.131,382.227 282.124,382.227 281.734 C 382.227 281.683,382.479 281.092,382.789 280.420 C 383.098 279.749,383.674 278.408,384.070 277.441 C 384.466 276.475,384.951 275.332,385.148 274.902 C 385.345 274.473,385.569 273.901,385.646 273.633 C 385.723 273.364,385.904 272.881,386.049 272.559 C 386.352 271.884,387.113 269.850,387.803 267.871 C 388.066 267.119,388.362 266.328,388.462 266.113 C 388.562 265.898,388.788 265.239,388.964 264.648 C 389.140 264.058,389.403 263.267,389.549 262.891 C 389.694 262.515,390.132 261.152,390.522 259.863 C 390.911 258.574,391.443 256.816,391.703 255.957 C 392.525 253.248,393.962 247.677,394.752 244.141 C 396.226 237.538,397.455 230.379,398.136 224.414 C 398.388 222.212,398.687 219.663,398.800 218.750 C 399.734 211.202,399.744 189.230,398.816 181.445 C 398.720 180.640,398.462 178.311,398.243 176.270 C 398.023 174.229,397.753 172.119,397.643 171.582 C 397.533 171.045,397.227 169.199,396.963 167.480 C 396.007 161.255,394.527 154.366,392.684 147.559 C 391.849 144.472,389.920 138.040,389.640 137.402 C 389.545 137.188,389.013 135.649,388.458 133.984 C 387.902 132.319,387.383 130.869,387.304 130.762 C 387.225 130.654,387.048 130.215,386.911 129.785 C 386.464 128.382,383.594 121.340,382.596 119.198 C 382.285 118.531,382.031 117.944,382.031 117.894 C 382.031 117.673,378.900 111.271,376.562 106.714 C 375.924 105.469,373.984 101.974,373.108 100.488 C 372.727 99.844,372.184 98.902,371.901 98.396 C 371.452 97.592,370.578 96.172,369.044 93.750 C 365.981 88.916,361.330 82.208,358.887 79.101 C 358.564 78.692,357.773 77.679,357.129 76.851 C 355.907 75.281,352.100 70.643,351.202 69.630 C 350.917 69.308,350.033 68.297,349.238 67.384 C 345.547 63.144,336.860 54.462,332.617 50.773 C 331.704 49.979,330.913 49.275,330.859 49.207 C 330.138 48.306,319.317 39.794,315.463 37.096 C 313.292 35.578,309.012 32.661,308.458 32.324 C 308.106 32.109,306.627 31.187,305.172 30.273 C 303.717 29.360,302.376 28.525,302.191 28.416 C 294.891 24.139,286.979 20.053,280.664 17.299 C 279.751 16.901,278.426 16.317,277.719 16.002 C 277.012 15.687,276.352 15.430,276.251 15.430 C 276.151 15.430,275.762 15.267,275.388 15.068 C 275.013 14.869,274.355 14.595,273.926 14.459 C 273.496 14.323,272.881 14.094,272.559 13.950 C 271.879 13.646,269.832 12.880,267.871 12.197 C 267.119 11.934,266.328 11.638,266.113 11.538 C 265.898 11.438,264.580 10.991,263.184 10.544 C 261.787 10.096,260.161 9.565,259.570 9.362 C 253.604 7.315,240.643 4.259,232.715 3.031 C 230.996 2.764,229.414 2.497,229.199 2.437 C 228.837 2.335,222.571 1.575,218.750 1.169 C 213.872 0.651,196.490 0.225,191.699 0.506 M129.102 77.641 C 150.106 77.870,174.325 78.315,175.023 78.485 C 175.605 78.628,189.111 85.465,189.746 85.939 C 189.854 86.020,192.205 87.245,194.971 88.664 L 200.000 91.242 205.029 88.664 C 207.795 87.245,210.146 86.020,210.254 85.941 C 210.361 85.862,213.642 84.148,217.545 82.133 L 224.641 78.469 227.799 78.310 C 229.536 78.223,238.911 78.057,248.633 77.941 C 258.354 77.825,267.539 77.689,269.043 77.637 C 276.946 77.368,284.081 77.477,284.994 77.881 C 286.635 78.607,285.845 77.174,299.610 104.395 C 302.109 109.336,305.713 116.455,307.619 120.215 C 309.525 123.975,313.570 131.973,316.607 137.988 C 325.397 155.395,325.978 156.530,326.228 156.770 C 326.459 156.991,327.037 157.298,333.887 160.842 C 335.713 161.787,337.918 162.933,338.787 163.388 C 341.008 164.552,347.962 168.134,350.289 169.313 C 351.361 169.856,352.297 170.237,352.369 170.160 C 352.440 170.083,354.673 165.713,357.329 160.449 C 366.903 141.483,368.204 138.954,368.734 138.281 C 371.073 135.314,375.906 136.396,376.948 140.120 C 377.349 141.551,377.073 142.509,375.210 146.155 C 374.267 148.001,371.230 153.994,368.461 159.473 C 365.692 164.951,361.911 172.422,360.059 176.074 C 358.207 179.727,354.732 186.604,352.337 191.357 L 347.982 200.000 352.337 208.643 C 354.732 213.396,358.207 220.273,360.059 223.926 C 361.911 227.578,365.692 235.049,368.461 240.527 C 371.230 246.006,374.267 251.999,375.210 253.845 C 377.073 257.491,377.349 258.449,376.948 259.880 C 375.906 263.604,371.073 264.686,368.734 261.719 C 368.204 261.046,366.903 258.517,357.329 239.551 C 354.673 234.287,352.439 229.916,352.367 229.838 C 352.214 229.674,349.516 231.020,338.770 236.623 C 337.695 237.183,335.410 238.369,333.691 239.259 C 325.002 243.757,326.449 242.554,324.061 247.266 C 322.999 249.360,319.645 255.996,316.607 262.012 C 313.570 268.027,309.525 276.025,307.619 279.785 C 305.713 283.545,302.109 290.664,299.610 295.605 C 285.845 322.826,286.635 321.393,284.994 322.119 C 284.081 322.523,276.946 322.632,269.043 322.363 C 267.539 322.311,258.354 322.175,248.633 322.059 C 238.911 321.943,229.536 321.777,227.800 321.690 L 224.643 321.531 217.546 317.869 C 213.643 315.855,210.361 314.141,210.254 314.061 C 210.146 313.981,207.795 312.755,205.029 311.336 L 200.000 308.758 194.971 311.336 C 192.205 312.755,189.854 313.981,189.746 314.061 C 189.639 314.141,186.357 315.855,182.454 317.869 L 175.357 321.531 172.200 321.690 C 170.464 321.777,161.045 321.943,151.270 322.059 C 141.494 322.175,132.397 322.312,131.055 322.364 C 123.854 322.640,115.910 322.519,115.004 322.118 C 113.365 321.393,114.154 322.824,100.390 295.605 C 97.891 290.664,94.287 283.545,92.381 279.785 C 90.475 276.025,86.430 268.027,83.393 262.012 C 74.603 244.605,74.022 243.470,73.772 243.230 C 73.642 243.106,72.612 242.525,71.484 241.940 C 70.356 241.355,68.027 240.149,66.309 239.260 C 64.590 238.370,62.393 237.227,61.426 236.719 C 58.898 235.389,52.831 232.261,50.103 230.880 C 48.817 230.229,47.705 229.760,47.633 229.838 C 47.560 229.917,45.327 234.287,42.671 239.551 C 33.097 258.517,31.796 261.046,31.266 261.719 C 28.927 264.686,24.094 263.604,23.052 259.880 C 22.651 258.449,22.927 257.491,24.790 253.845 C 25.733 251.999,28.770 246.006,31.539 240.527 C 34.308 235.049,38.177 227.402,40.137 223.535 C 42.096 219.668,45.571 212.791,47.859 208.252 L 52.018 200.001 47.663 191.358 C 45.268 186.604,41.793 179.727,39.941 176.074 C 38.089 172.422,34.308 164.951,31.539 159.473 C 28.770 153.994,25.733 148.001,24.790 146.155 C 22.927 142.509,22.651 141.551,23.052 140.120 C 24.094 136.396,28.927 135.314,31.266 138.281 C 31.796 138.954,33.097 141.483,42.671 160.449 C 45.327 165.713,47.560 170.083,47.633 170.162 C 47.705 170.240,48.817 169.771,50.103 169.120 C 52.831 167.739,58.898 164.611,61.426 163.281 C 62.393 162.773,64.590 161.630,66.309 160.740 C 74.993 156.246,73.551 157.446,75.939 152.734 C 77.001 150.640,80.355 144.004,83.393 137.988 C 86.430 131.973,90.475 123.975,92.381 120.215 C 94.287 116.455,97.891 109.336,100.390 104.395 C 114.005 77.466,113.109 79.148,114.302 78.258 C 114.993 77.742,116.530 77.349,117.480 77.445 C 117.910 77.488,123.140 77.577,129.102 77.641 M195.508 104.275 C 193.091 105.546,188.521 107.929,185.352 109.571 C 182.183 111.212,179.063 112.839,178.418 113.187 C 177.773 113.534,175.928 114.486,174.316 115.301 C 172.705 116.117,170.771 117.122,170.020 117.533 C 169.268 117.945,166.455 119.410,163.770 120.788 C 161.084 122.167,158.799 123.358,158.691 123.436 C 158.584 123.513,156.123 124.788,153.223 126.268 C 150.322 127.749,147.861 129.024,147.754 129.101 C 147.646 129.179,145.757 130.168,143.555 131.299 C 137.715 134.300,132.360 137.079,128.223 139.257 C 125.968 140.444,121.695 142.658,117.480 144.822 C 115.654 145.760,113.721 146.771,113.184 147.068 C 112.646 147.366,110.493 148.486,108.398 149.559 C 106.304 150.631,103.755 151.948,102.734 152.484 C 99.545 154.161,96.114 155.950,92.871 157.626 C 89.911 159.156,86.288 161.037,82.641 162.938 L 81.004 163.791 78.578 168.565 C 77.243 171.191,73.117 179.338,69.409 186.670 L 62.666 200.000 69.409 213.330 C 73.117 220.662,77.243 228.809,78.578 231.435 L 81.004 236.209 82.641 237.062 C 86.288 238.963,89.911 240.844,92.871 242.374 C 96.114 244.050,99.545 245.839,102.734 247.516 C 103.755 248.052,106.304 249.369,108.398 250.441 C 110.493 251.514,112.646 252.634,113.184 252.932 C 113.721 253.229,115.654 254.240,117.480 255.178 C 121.695 257.342,125.968 259.556,128.223 260.743 C 132.360 262.921,137.715 265.700,143.555 268.701 C 145.757 269.832,147.646 270.821,147.754 270.899 C 147.861 270.976,150.322 272.251,153.223 273.732 C 156.123 275.212,158.584 276.487,158.691 276.564 C 158.799 276.642,161.084 277.833,163.770 279.212 C 166.455 280.590,169.268 282.055,170.020 282.467 C 170.771 282.878,172.617 283.838,174.121 284.599 C 175.625 285.360,177.559 286.357,178.418 286.813 C 179.277 287.270,182.397 288.897,185.352 290.429 C 188.306 291.962,192.810 294.307,195.361 295.642 L 200.000 298.069 204.639 295.642 C 207.190 294.307,211.694 291.962,214.648 290.429 C 217.603 288.897,220.723 287.270,221.582 286.813 C 222.441 286.357,224.375 285.360,225.879 284.599 C 227.383 283.838,229.229 282.878,229.980 282.467 C 230.732 282.055,233.545 280.590,236.230 279.212 C 238.916 277.833,241.201 276.642,241.309 276.564 C 241.416 276.487,243.877 275.212,246.777 273.732 C 249.678 272.251,252.139 270.976,252.246 270.899 C 252.354 270.821,254.243 269.832,256.445 268.701 C 262.285 265.700,267.640 262.921,271.777 260.743 C 274.032 259.556,278.305 257.342,282.520 255.178 C 284.346 254.240,286.279 253.229,286.816 252.932 C 287.354 252.634,289.507 251.514,291.602 250.441 C 293.696 249.369,296.245 248.052,297.266 247.516 C 300.455 245.839,303.886 244.050,307.129 242.374 C 310.089 240.844,313.712 238.963,317.359 237.062 L 318.996 236.209 321.422 231.435 C 322.757 228.809,326.882 220.662,330.590 213.330 L 337.331 200.000 330.590 186.670 C 326.882 179.338,322.757 171.191,321.422 168.565 L 318.996 163.791 317.359 162.938 C 313.712 161.037,310.089 159.156,307.129 157.626 C 303.886 155.950,300.455 154.161,297.266 152.484 C 296.245 151.948,293.696 150.631,291.602 149.559 C 289.507 148.486,287.354 147.366,286.816 147.068 C 286.279 146.771,284.346 145.760,282.520 144.822 C 278.305 142.658,274.032 140.444,271.777 139.257 C 267.640 137.079,262.285 134.300,256.445 131.299 C 254.243 130.168,252.354 129.179,252.246 129.101 C 252.139 129.024,249.678 127.749,246.777 126.268 C 243.877 124.788,241.416 123.513,241.309 123.436 C 241.201 123.358,238.916 122.167,236.230 120.788 C 233.545 119.410,230.732 117.945,229.980 117.533 C 229.229 117.122,227.383 116.162,225.879 115.401 C 224.375 114.640,222.441 113.643,221.582 113.187 C 220.723 112.730,217.603 111.103,214.648 109.571 C 211.694 108.038,207.199 105.698,204.660 104.369 C 202.120 103.040,200.011 101.956,199.972 101.959 C 199.934 101.962,197.925 103.004,195.508 104.275 M149.119 175.390 C 157.727 177.592,160.669 188.178,154.411 194.436 C 148.172 200.675,137.731 197.839,135.364 189.262 C 133.097 181.048,140.814 173.266,149.119 175.390 M256.069 175.296 C 262.293 176.605,266.318 183.167,264.636 189.262 C 262.269 197.839,251.828 200.675,245.589 194.436 C 237.599 186.446,244.982 172.964,256.069 175.296 M148.144 240.446 C 150.312 241.257,151.869 242.948,152.484 245.157 L 152.801 246.297 154.379 246.772 C 162.908 249.341,191.045 257.617,191.247 257.617 C 191.392 257.617,191.664 257.184,191.852 256.654 C 194.357 249.601,205.643 249.601,208.148 256.654 C 208.336 257.184,208.608 257.617,208.753 257.617 C 208.955 257.617,237.092 249.341,245.621 246.772 L 247.199 246.297 247.516 245.157 C 249.647 237.495,260.842 238.939,260.839 246.875 C 260.837 253.157,253.202 256.096,249.033 251.419 L 248.094 250.365 228.415 256.196 L 208.736 262.026 208.300 263.319 C 205.619 271.279,194.381 271.279,191.700 263.319 L 191.264 262.026 171.585 256.196 L 151.906 250.365 150.967 251.419 C 147.728 255.053,141.944 254.228,139.792 249.826 C 137.154 244.430,142.561 238.358,148.144 240.446  M -25 0 L -5 0 L -5 20 L -25 20 Z M 405 0 L 425 0 L 425 20 L 405 20 Z" stroke="none" fill="#2383a4" fill-rule="evenodd" transform="translate(490,0)"></path><path id="path2" d="M191.553 0.338 C 192.009 0.379,192.756 0.379,193.213 0.338 C 193.669 0.297,193.296 0.264,192.383 0.264 C 191.470 0.264,191.096 0.297,191.553 0.338 M206.592 0.338 C 207.048 0.379,207.795 0.379,208.252 0.338 C 208.708 0.297,208.335 0.264,207.422 0.264 C 206.509 0.264,206.135 0.297,206.592 0.338 M187.646 0.534 C 188.103 0.575,188.850 0.575,189.307 0.534 C 189.763 0.493,189.390 0.459,188.477 0.459 C 187.563 0.459,187.190 0.493,187.646 0.534 M210.498 0.534 C 210.955 0.575,211.702 0.575,212.158 0.534 C 212.615 0.493,212.241 0.459,211.328 0.459 C 210.415 0.459,210.042 0.493,210.498 0.534 M185.111 0.727 C 185.462 0.771,185.989 0.770,186.283 0.725 C 186.576 0.681,186.289 0.645,185.645 0.646 C 185.000 0.648,184.760 0.684,185.111 0.727 M213.623 0.727 C 213.972 0.771,214.543 0.771,214.893 0.727 C 215.242 0.684,214.956 0.648,214.258 0.648 C 213.560 0.648,213.274 0.684,213.623 0.727 M182.764 0.919 C 183.005 0.966,183.401 0.966,183.643 0.919 C 183.884 0.873,183.687 0.834,183.203 0.834 C 182.720 0.834,182.522 0.873,182.764 0.919 M216.360 0.919 C 216.603 0.966,216.954 0.964,217.141 0.915 C 217.328 0.867,217.129 0.828,216.699 0.831 C 216.270 0.833,216.117 0.873,216.360 0.919 M176.611 1.502 C 176.799 1.551,177.107 1.551,177.295 1.502 C 177.483 1.453,177.329 1.413,176.953 1.413 C 176.577 1.413,176.423 1.453,176.611 1.502 M222.705 1.502 C 222.893 1.551,223.201 1.551,223.389 1.502 C 223.577 1.453,223.423 1.413,223.047 1.413 C 222.671 1.413,222.517 1.453,222.705 1.502 M174.023 1.768 C 173.583 1.867,173.827 1.884,174.707 1.816 C 175.459 1.758,176.111 1.677,176.156 1.636 C 176.295 1.510,174.742 1.606,174.023 1.768 M224.172 1.701 C 224.415 1.747,224.767 1.746,224.953 1.697 C 225.140 1.648,224.941 1.610,224.512 1.612 C 224.082 1.614,223.929 1.654,224.172 1.701 M225.635 1.892 C 225.823 1.942,226.130 1.942,226.318 1.892 C 226.506 1.843,226.353 1.803,225.977 1.803 C 225.601 1.803,225.447 1.843,225.635 1.892 M231.543 2.734 C 231.865 2.816,232.393 2.884,232.715 2.884 C 233.207 2.885,233.176 2.859,232.520 2.723 C 231.530 2.519,230.731 2.528,231.543 2.734 M166.211 2.939 C 165.882 3.051,166.041 3.068,166.699 2.992 C 167.236 2.930,167.712 2.847,167.757 2.807 C 167.911 2.670,166.699 2.773,166.211 2.939 M160.840 3.906 C 160.314 4.040,160.304 4.056,160.742 4.059 C 161.011 4.061,161.450 3.992,161.719 3.906 C 162.375 3.696,161.666 3.696,160.840 3.906 M155.273 5.078 C 154.887 5.202,154.866 5.234,155.176 5.234 C 155.391 5.234,155.786 5.164,156.055 5.078 C 156.441 4.954,156.462 4.922,156.152 4.922 C 155.938 4.922,155.542 4.992,155.273 5.078 M243.750 5.078 C 244.019 5.164,244.414 5.234,244.629 5.234 C 244.938 5.234,244.918 5.202,244.531 5.078 C 244.263 4.992,243.867 4.922,243.652 4.922 C 243.343 4.922,243.363 4.954,243.750 5.078 M150.488 6.250 C 149.991 6.464,150.504 6.464,151.172 6.250 C 151.564 6.124,151.584 6.092,151.270 6.088 C 151.055 6.085,150.703 6.158,150.488 6.250 M248.730 6.250 C 248.945 6.342,249.297 6.415,249.512 6.412 C 249.826 6.408,249.807 6.376,249.414 6.250 C 248.746 6.036,248.233 6.036,248.730 6.250 M146.777 7.227 C 146.531 7.332,146.495 7.394,146.680 7.394 C 146.841 7.394,147.148 7.319,147.363 7.227 C 147.609 7.121,147.646 7.059,147.461 7.059 C 147.300 7.059,146.992 7.134,146.777 7.227 M252.539 7.201 C 252.700 7.298,253.140 7.432,253.516 7.498 C 253.977 7.580,254.072 7.565,253.809 7.452 C 253.205 7.193,252.192 6.994,252.539 7.201 M142.383 8.496 C 142.007 8.641,141.831 8.759,141.992 8.759 C 142.153 8.759,142.593 8.641,142.969 8.496 C 143.345 8.351,143.521 8.233,143.359 8.233 C 143.198 8.233,142.759 8.351,142.383 8.496 M260.742 9.668 C 261.634 10.011,261.985 10.006,261.230 9.661 C 260.908 9.513,260.513 9.395,260.352 9.399 C 260.190 9.402,260.366 9.523,260.742 9.668 M264.063 10.709 C 264.224 10.809,264.575 10.949,264.844 11.021 C 265.183 11.112,265.243 11.096,265.039 10.970 C 264.878 10.871,264.526 10.731,264.258 10.659 C 263.918 10.568,263.859 10.583,264.063 10.709 M132.324 11.823 C 131.836 12.059,131.820 12.086,132.227 11.986 C 132.780 11.851,133.402 11.534,133.105 11.538 C 132.998 11.540,132.646 11.668,132.324 11.823 M267.383 11.881 C 267.544 11.981,267.896 12.121,268.164 12.193 C 268.503 12.284,268.563 12.268,268.359 12.142 C 268.198 12.043,267.847 11.903,267.578 11.831 C 267.239 11.740,267.179 11.755,267.383 11.881 M129.199 12.995 C 128.711 13.230,128.695 13.258,129.102 13.158 C 129.655 13.023,130.277 12.706,129.980 12.710 C 129.873 12.712,129.521 12.840,129.199 12.995 M273.047 14.030 C 273.208 14.129,273.560 14.269,273.828 14.341 C 274.167 14.432,274.227 14.417,274.023 14.291 C 273.862 14.191,273.511 14.051,273.242 13.979 C 272.903 13.888,272.843 13.904,273.047 14.030 M123.242 15.332 C 122.974 15.486,122.842 15.611,122.949 15.611 C 123.057 15.611,123.364 15.486,123.633 15.332 C 123.901 15.179,124.033 15.053,123.926 15.053 C 123.818 15.053,123.511 15.179,123.242 15.332 M278.516 16.309 C 278.784 16.462,279.092 16.588,279.199 16.588 C 279.307 16.588,279.175 16.462,278.906 16.309 C 278.638 16.155,278.330 16.029,278.223 16.029 C 278.115 16.029,278.247 16.155,278.516 16.309 M120.508 16.504 C 120.239 16.657,120.107 16.783,120.215 16.783 C 120.322 16.783,120.630 16.657,120.898 16.504 C 121.167 16.350,121.299 16.225,121.191 16.225 C 121.084 16.225,120.776 16.350,120.508 16.504 M281.445 17.578 C 281.821 17.784,282.217 17.952,282.324 17.952 C 282.432 17.952,282.212 17.784,281.836 17.578 C 281.460 17.372,281.064 17.204,280.957 17.204 C 280.850 17.204,281.069 17.372,281.445 17.578 M117.578 17.773 C 117.202 17.979,116.982 18.148,117.090 18.148 C 117.197 18.148,117.593 17.979,117.969 17.773 C 118.345 17.568,118.564 17.399,118.457 17.399 C 118.350 17.399,117.954 17.568,117.578 17.773 M283.789 18.652 C 284.058 18.806,284.365 18.931,284.473 18.931 C 284.580 18.931,284.448 18.806,284.180 18.652 C 283.911 18.499,283.604 18.373,283.496 18.373 C 283.389 18.373,283.521 18.499,283.789 18.652 M285.954 19.604 C 286.155 19.784,287.305 20.312,287.305 20.225 C 287.305 20.112,286.222 19.531,286.012 19.531 C 285.935 19.531,285.909 19.564,285.954 19.604 M287.907 20.581 C 288.107 20.762,289.648 21.482,289.648 21.395 C 289.648 21.284,288.174 20.508,287.964 20.508 C 287.888 20.508,287.862 20.541,287.907 20.581 M290.039 21.574 C 290.039 21.628,290.391 21.851,290.820 22.070 C 291.250 22.290,291.602 22.425,291.602 22.371 C 291.602 22.318,291.250 22.094,290.820 21.875 C 290.391 21.656,290.039 21.520,290.039 21.574 M106.592 23.159 C 105.862 23.555,105.906 23.720,106.641 23.340 C 106.963 23.173,107.227 22.995,107.227 22.944 C 107.227 22.819,107.206 22.826,106.592 23.159 M294.531 23.916 C 294.531 23.969,294.795 24.150,295.117 24.316 C 295.439 24.483,295.703 24.575,295.703 24.522 C 295.703 24.468,295.439 24.288,295.117 24.121 C 294.795 23.954,294.531 23.862,294.531 23.916 M104.053 24.526 C 103.323 24.922,103.367 25.087,104.102 24.707 C 104.424 24.540,104.688 24.362,104.688 24.311 C 104.688 24.186,104.667 24.193,104.053 24.526 M102.295 25.502 C 101.565 25.898,101.609 26.063,102.344 25.684 C 102.666 25.517,102.930 25.339,102.930 25.288 C 102.930 25.162,102.909 25.169,102.295 25.502 M100.537 26.479 C 99.807 26.875,99.851 27.040,100.586 26.660 C 100.908 26.494,101.172 26.315,101.172 26.265 C 101.172 26.139,101.151 26.146,100.537 26.479 M299.023 26.455 C 299.023 26.509,299.287 26.689,299.609 26.855 C 299.932 27.022,300.195 27.115,300.195 27.061 C 300.195 27.007,299.932 26.827,299.609 26.660 C 299.287 26.494,299.023 26.401,299.023 26.455 M303.027 28.812 C 303.242 28.987,303.594 29.216,303.809 29.322 L 304.199 29.514 303.809 29.196 C 303.594 29.021,303.242 28.791,303.027 28.686 L 302.637 28.494 303.027 28.812 M94.189 30.296 C 93.524 30.722,93.308 31.009,93.896 30.685 C 94.345 30.439,95.047 29.896,94.922 29.892 C 94.868 29.891,94.539 30.072,94.189 30.296 M308.301 32.132 C 308.516 32.307,308.867 32.537,309.082 32.642 L 309.473 32.834 309.082 32.516 C 308.867 32.341,308.516 32.112,308.301 32.006 L 307.910 31.814 308.301 32.132 M87.598 34.685 L 87.012 35.189 87.646 34.768 C 87.996 34.537,88.281 34.310,88.281 34.264 C 88.281 34.118,88.199 34.169,87.598 34.685 M84.473 36.834 L 83.887 37.337 84.521 36.917 C 84.871 36.686,85.156 36.459,85.156 36.412 C 85.156 36.266,85.074 36.317,84.473 36.834 M82.910 37.906 C 81.751 38.782,81.596 39.029,82.682 38.268 C 83.503 37.692,83.950 37.292,83.752 37.310 C 83.719 37.313,83.340 37.581,82.910 37.906 M316.476 37.651 C 316.631 37.901,317.773 38.746,317.773 38.611 C 317.773 38.562,317.451 38.277,317.056 37.976 C 316.662 37.675,316.401 37.529,316.476 37.651 M317.969 38.743 C 317.969 38.797,318.232 39.028,318.555 39.258 C 318.877 39.487,319.141 39.631,319.141 39.577 C 319.141 39.524,318.877 39.292,318.555 39.063 C 318.232 38.833,317.969 38.689,317.969 38.743 M319.531 39.915 C 319.531 39.969,319.795 40.200,320.117 40.430 C 320.439 40.659,320.703 40.803,320.703 40.749 C 320.703 40.696,320.439 40.464,320.117 40.234 C 319.795 40.005,319.531 39.861,319.531 39.915 M76.750 42.592 L 76.074 43.192 76.807 42.667 C 77.454 42.202,77.664 41.992,77.483 41.992 C 77.452 41.992,77.122 42.262,76.750 42.592 M323.633 43.026 C 323.633 43.076,324.046 43.456,324.551 43.870 C 325.057 44.284,325.407 44.521,325.330 44.396 C 325.166 44.130,323.633 42.893,323.633 43.026 M73.828 44.938 L 72.949 45.735 73.877 45.012 C 74.690 44.378,74.931 44.139,74.756 44.141 C 74.729 44.141,74.312 44.500,73.828 44.938 M327.734 46.348 C 327.734 46.402,328.262 46.903,328.906 47.461 C 329.551 48.019,330.078 48.432,330.078 48.378 C 330.078 48.325,329.551 47.824,328.906 47.266 C 328.262 46.707,327.734 46.294,327.734 46.348 M330.273 48.499 C 330.273 48.532,330.559 48.818,330.908 49.133 L 331.543 49.707 330.969 49.072 C 330.435 48.481,330.273 48.348,330.273 48.499 M67.285 50.508 L 65.723 51.988 67.334 50.576 C 68.764 49.322,69.072 49.017,68.896 49.026 C 68.870 49.028,68.145 49.695,67.285 50.508 M334.473 52.344 C 335.002 52.881,335.478 53.320,335.532 53.320 C 335.586 53.320,335.197 52.881,334.668 52.344 C 334.139 51.807,333.662 51.367,333.608 51.367 C 333.555 51.367,333.944 51.807,334.473 52.344 M64.252 53.271 L 62.988 54.590 64.307 53.326 C 65.032 52.631,65.625 52.038,65.625 52.008 C 65.625 51.864,65.426 52.047,64.252 53.271 M337.402 55.078 C 338.365 56.045,339.196 56.836,339.250 56.836 C 339.303 56.836,338.560 56.045,337.598 55.078 C 336.635 54.111,335.804 53.320,335.750 53.320 C 335.697 53.320,336.440 54.111,337.402 55.078 M58.592 58.740 L 54.395 62.988 58.643 58.791 C 62.590 54.891,62.979 54.492,62.840 54.492 C 62.812 54.492,60.901 56.404,58.592 58.740 M341.113 58.594 C 341.751 59.238,342.317 59.766,342.371 59.766 C 342.424 59.766,341.946 59.238,341.309 58.594 C 340.671 57.949,340.105 57.422,340.051 57.422 C 339.998 57.422,340.475 57.949,341.113 58.594 M344.824 62.500 C 345.787 63.467,346.618 64.258,346.672 64.258 C 346.725 64.258,345.982 63.467,345.020 62.500 C 344.057 61.533,343.226 60.742,343.172 60.742 C 343.118 60.742,343.862 61.533,344.824 62.500 M52.924 64.600 L 51.660 65.918 52.979 64.654 C 53.704 63.959,54.297 63.366,54.297 63.336 C 54.297 63.192,54.098 63.375,52.924 64.600 M347.754 65.625 C 348.283 66.162,348.760 66.602,348.813 66.602 C 348.867 66.602,348.478 66.162,347.949 65.625 C 347.420 65.088,346.943 64.648,346.890 64.648 C 346.836 64.648,347.225 65.088,347.754 65.625 M50.870 66.846 L 50.098 67.676 50.928 66.904 C 51.700 66.186,51.848 66.016,51.700 66.016 C 51.668 66.016,51.294 66.389,50.870 66.846 M348.828 66.858 C 348.828 66.892,349.114 67.177,349.463 67.493 L 350.098 68.066 349.524 67.432 C 348.989 66.840,348.828 66.707,348.828 66.858 M49.499 68.408 L 48.926 69.043 49.561 68.469 C 50.152 67.935,50.285 67.773,50.134 67.773 C 50.101 67.773,49.815 68.059,49.499 68.408 M350.391 68.616 C 350.391 68.649,350.676 68.935,351.025 69.251 L 351.660 69.824 351.087 69.189 C 350.552 68.598,350.391 68.465,350.391 68.616 M352.539 71.094 C 353.097 71.738,353.598 72.266,353.652 72.266 C 353.706 72.266,353.293 71.738,352.734 71.094 C 352.176 70.449,351.675 69.922,351.622 69.922 C 351.568 69.922,351.981 70.449,352.539 71.094 M44.727 74.023 C 44.386 74.453,44.152 74.805,44.205 74.805 C 44.259 74.805,44.582 74.453,44.922 74.023 C 45.262 73.594,45.497 73.242,45.443 73.242 C 45.389 73.242,45.067 73.594,44.727 74.023 M117.441 77.684 C 118.278 77.721,119.596 77.721,120.370 77.684 C 121.144 77.647,120.459 77.617,118.848 77.617 C 117.236 77.617,116.603 77.648,117.441 77.684 M279.745 77.684 C 280.583 77.721,281.901 77.721,282.675 77.684 C 283.449 77.647,282.764 77.617,281.152 77.617 C 279.541 77.617,278.908 77.648,279.745 77.684 M358.199 78.119 C 358.426 78.438,358.712 78.761,358.834 78.836 C 358.956 78.911,358.809 78.650,358.508 78.256 C 357.855 77.400,357.609 77.291,358.199 78.119 M132.285 77.880 C 133.230 77.916,134.724 77.916,135.605 77.880 C 136.486 77.843,135.713 77.814,133.887 77.814 C 132.061 77.815,131.340 77.844,132.285 77.880 M264.512 77.880 C 265.457 77.916,266.951 77.916,267.832 77.880 C 268.713 77.843,267.939 77.814,266.113 77.814 C 264.287 77.815,263.566 77.844,264.512 77.880 M40.723 79.102 C 40.227 79.746,39.865 80.273,39.919 80.273 C 39.972 80.273,40.422 79.746,40.918 79.102 C 41.414 78.457,41.776 77.930,41.722 77.930 C 41.668 77.930,41.219 78.457,40.723 79.102 M146.240 78.075 C 147.126 78.111,148.577 78.111,149.463 78.075 C 150.349 78.039,149.624 78.009,147.852 78.009 C 146.079 78.009,145.354 78.039,146.240 78.075 M250.537 78.075 C 251.423 78.111,252.874 78.111,253.760 78.075 C 254.646 78.039,253.921 78.009,252.148 78.009 C 250.376 78.009,249.651 78.039,250.537 78.075 M158.945 78.270 C 159.836 78.307,161.242 78.307,162.070 78.270 C 162.897 78.233,162.168 78.204,160.449 78.204 C 158.730 78.204,158.053 78.234,158.945 78.270 M238.046 78.270 C 238.938 78.307,240.344 78.307,241.171 78.270 C 241.999 78.233,241.270 78.204,239.551 78.204 C 237.832 78.204,237.155 78.234,238.046 78.270 M171.436 78.464 C 172.000 78.504,172.922 78.504,173.486 78.464 C 174.050 78.425,173.589 78.393,172.461 78.393 C 171.333 78.393,170.872 78.425,171.436 78.464 M226.514 78.464 C 227.078 78.504,228.000 78.504,228.564 78.464 C 229.128 78.425,228.667 78.393,227.539 78.393 C 226.411 78.393,225.950 78.425,226.514 78.464 M359.460 79.752 C 359.761 80.146,360.047 80.469,360.095 80.469 C 360.231 80.469,359.385 79.326,359.135 79.172 C 359.013 79.096,359.160 79.357,359.460 79.752 M39.258 81.055 C 39.028 81.377,38.885 81.641,38.938 81.641 C 38.992 81.641,39.224 81.377,39.453 81.055 C 39.683 80.732,39.826 80.469,39.773 80.469 C 39.719 80.469,39.487 80.732,39.258 81.055 M361.719 82.813 C 361.948 83.135,362.180 83.398,362.234 83.398 C 362.287 83.398,362.144 83.135,361.914 82.813 C 361.685 82.490,361.453 82.227,361.399 82.227 C 361.345 82.227,361.489 82.490,361.719 82.813 M185.547 83.877 C 185.547 83.930,185.811 84.111,186.133 84.277 C 186.455 84.444,186.719 84.536,186.719 84.483 C 186.719 84.429,186.455 84.249,186.133 84.082 C 185.811 83.915,185.547 83.823,185.547 83.877 M213.818 84.096 C 213.088 84.492,213.133 84.657,213.867 84.277 C 214.189 84.111,214.453 83.933,214.453 83.882 C 214.453 83.756,214.432 83.763,213.818 84.096 M35.742 85.938 C 35.513 86.260,35.369 86.523,35.423 86.523 C 35.476 86.523,35.708 86.260,35.938 85.938 C 36.167 85.615,36.311 85.352,36.257 85.352 C 36.203 85.352,35.972 85.615,35.742 85.938 M33.668 88.916 C 32.996 90.057,32.952 90.154,33.294 89.746 C 33.691 89.273,34.033 88.672,33.905 88.672 C 33.854 88.672,33.747 88.782,33.668 88.916 M367.358 90.918 C 367.463 91.133,367.693 91.484,367.868 91.699 L 368.186 92.090 367.994 91.699 C 367.888 91.484,367.659 91.133,367.484 90.918 L 367.166 90.527 367.358 90.918 M369.701 94.629 C 369.807 94.844,370.036 95.195,370.211 95.410 L 370.529 95.801 370.338 95.410 C 370.232 95.195,370.003 94.844,369.828 94.629 L 369.510 94.238 369.701 94.629 M370.678 96.191 C 370.784 96.406,371.013 96.758,371.188 96.973 L 371.506 97.363 371.314 96.973 C 371.209 96.758,370.979 96.406,370.804 96.191 L 370.486 95.801 370.678 96.191 M103.604 98.065 C 103.432 98.397,103.326 98.704,103.369 98.746 C 103.411 98.789,103.592 98.517,103.770 98.142 C 104.172 97.300,104.033 97.235,103.604 98.065 M296.230 98.142 C 296.408 98.517,296.589 98.789,296.631 98.746 C 296.721 98.657,296.128 97.461,295.994 97.461 C 295.945 97.461,296.051 97.767,296.230 98.142 M25.684 101.953 C 25.517 102.275,25.425 102.539,25.478 102.539 C 25.532 102.539,25.712 102.275,25.879 101.953 C 26.046 101.631,26.138 101.367,26.084 101.367 C 26.031 101.367,25.850 101.631,25.684 101.953 M374.121 102.148 C 374.288 102.471,374.468 102.734,374.522 102.734 C 374.575 102.734,374.483 102.471,374.316 102.148 C 374.150 101.826,373.969 101.563,373.916 101.563 C 373.862 101.563,373.954 101.826,374.121 102.148 M23.340 106.250 C 23.173 106.572,23.081 106.836,23.134 106.836 C 23.188 106.836,23.369 106.572,23.535 106.250 C 23.702 105.928,23.794 105.664,23.741 105.664 C 23.687 105.664,23.506 105.928,23.340 106.250 M376.465 106.445 C 376.631 106.768,376.812 107.031,376.866 107.031 C 376.919 107.031,376.827 106.768,376.660 106.445 C 376.494 106.123,376.313 105.859,376.259 105.859 C 376.206 105.859,376.298 106.123,376.465 106.445 M21.963 108.807 C 21.791 109.139,21.686 109.446,21.728 109.488 C 21.770 109.531,21.951 109.259,22.130 108.884 C 22.531 108.042,22.392 107.978,21.963 108.807 M377.870 109.080 C 378.049 109.454,378.230 109.726,378.272 109.684 C 378.361 109.594,377.769 108.398,377.635 108.398 C 377.586 108.398,377.692 108.705,377.870 109.080 M20.889 110.956 C 20.664 111.397,20.514 111.790,20.555 111.831 C 20.596 111.872,20.821 111.512,21.054 111.031 C 21.587 109.935,21.443 109.871,20.889 110.956 M378.946 111.226 C 379.179 111.707,379.404 112.067,379.445 112.026 C 379.533 111.938,378.744 110.352,378.612 110.352 C 378.562 110.352,378.712 110.745,378.946 111.226 M19.815 113.104 C 19.643 113.436,19.537 113.743,19.579 113.785 C 19.622 113.828,19.803 113.556,19.981 113.181 C 20.383 112.339,20.244 112.274,19.815 113.104 M380.876 115.137 C 380.876 115.244,381.044 115.640,381.250 116.016 C 381.456 116.392,381.624 116.611,381.624 116.504 C 381.624 116.396,381.456 116.001,381.250 115.625 C 381.044 115.249,380.876 115.029,380.876 115.137 M18.586 115.731 C 18.259 116.449,18.322 116.602,18.675 115.950 C 18.841 115.645,18.939 115.359,18.895 115.314 C 18.850 115.269,18.711 115.457,18.586 115.731 M17.515 118.075 C 17.057 119.038,17.121 119.201,17.601 118.292 C 17.819 117.879,17.962 117.507,17.920 117.464 C 17.878 117.422,17.696 117.697,17.515 118.075 M382.045 117.676 C 382.045 117.783,382.171 118.091,382.324 118.359 C 382.478 118.628,382.603 118.760,382.603 118.652 C 382.603 118.545,382.478 118.237,382.324 117.969 C 382.171 117.700,382.045 117.568,382.045 117.676 M16.633 120.028 C 16.306 120.746,16.368 120.899,16.722 120.246 C 16.888 119.941,16.986 119.655,16.942 119.611 C 16.897 119.566,16.758 119.754,16.633 120.028 M15.260 123.268 C 15.029 123.825,14.872 124.312,14.912 124.352 C 14.951 124.391,15.172 123.968,15.404 123.411 C 15.635 122.855,15.792 122.367,15.753 122.328 C 15.713 122.289,15.492 122.712,15.260 123.268 M384.389 123.145 C 384.389 123.252,384.514 123.560,384.668 123.828 C 384.821 124.097,384.947 124.229,384.947 124.121 C 384.947 124.014,384.821 123.706,384.668 123.438 C 384.514 123.169,384.389 123.037,384.389 123.145 M12.912 129.123 C 12.792 129.468,12.728 129.785,12.770 129.827 C 12.811 129.869,12.944 129.620,13.064 129.275 C 13.185 128.930,13.249 128.613,13.207 128.572 C 13.165 128.530,13.033 128.778,12.912 129.123 M11.936 131.858 C 11.815 132.203,11.751 132.519,11.793 132.561 C 11.835 132.603,11.967 132.355,12.088 132.010 C 12.208 131.664,12.272 131.348,12.230 131.306 C 12.189 131.264,12.056 131.512,11.936 131.858 M388.003 132.422 C 388.074 132.690,388.215 133.042,388.314 133.203 C 388.440 133.407,388.455 133.347,388.365 133.008 C 388.293 132.739,388.153 132.388,388.053 132.227 C 387.927 132.023,387.912 132.083,388.003 132.422 M10.764 135.178 C 10.644 135.523,10.579 135.840,10.621 135.881 C 10.663 135.923,10.795 135.675,10.916 135.330 C 11.036 134.985,11.100 134.668,11.059 134.626 C 11.017 134.585,10.884 134.833,10.764 135.178 M27.393 136.658 C 27.581 136.707,27.888 136.707,28.076 136.658 C 28.264 136.609,28.110 136.569,27.734 136.569 C 27.358 136.569,27.205 136.609,27.393 136.658 M371.924 136.658 C 372.112 136.707,372.419 136.707,372.607 136.658 C 372.795 136.609,372.642 136.569,372.266 136.569 C 371.890 136.569,371.736 136.609,371.924 136.658 M9.609 138.613 C 9.320 139.555,9.460 139.695,9.766 138.770 C 9.894 138.379,9.962 138.022,9.915 137.975 C 9.869 137.929,9.731 138.216,9.609 138.613 M8.510 142.104 C 8.438 142.390,8.417 142.662,8.463 142.708 C 8.509 142.754,8.606 142.557,8.677 142.271 C 8.749 141.985,8.770 141.713,8.724 141.667 C 8.678 141.621,8.582 141.818,8.510 142.104 M391.241 142.188 C 391.241 142.349,391.359 142.788,391.504 143.164 C 391.649 143.540,391.767 143.716,391.767 143.555 C 391.767 143.394,391.649 142.954,391.504 142.578 C 391.359 142.202,391.241 142.026,391.241 142.188 M392.410 146.289 C 392.410 146.450,392.486 146.758,392.578 146.973 C 392.684 147.219,392.746 147.255,392.746 147.070 C 392.746 146.909,392.670 146.602,392.578 146.387 C 392.472 146.141,392.410 146.104,392.410 146.289 M109.326 148.841 C 108.923 149.054,108.594 149.272,108.594 149.325 C 108.594 149.378,108.945 149.243,109.375 149.023 C 109.805 148.804,110.156 148.583,110.156 148.531 C 110.156 148.403,110.155 148.404,109.326 148.841 M289.844 148.527 C 289.844 148.581,290.195 148.804,290.625 149.023 C 291.055 149.243,291.406 149.378,291.406 149.324 C 291.406 149.271,291.055 149.047,290.625 148.828 C 290.195 148.609,289.844 148.474,289.844 148.527 M6.071 150.895 C 5.945 151.396,5.878 151.842,5.923 151.887 C 5.968 151.931,6.108 151.559,6.234 151.058 C 6.360 150.557,6.426 150.111,6.382 150.066 C 6.337 150.022,6.197 150.395,6.071 150.895 M4.991 155.382 C 4.918 155.774,4.897 156.134,4.944 156.181 C 4.992 156.229,5.091 155.948,5.165 155.556 C 5.238 155.164,5.260 154.804,5.212 154.756 C 5.164 154.708,5.065 154.990,4.991 155.382 M3.925 160.348 C 3.807 160.898,3.720 161.497,3.731 161.680 C 3.741 161.862,3.873 161.448,4.024 160.759 C 4.175 160.070,4.262 159.471,4.219 159.427 C 4.175 159.384,4.043 159.798,3.925 160.348 M42.285 160.156 C 42.452 160.479,42.632 160.742,42.686 160.742 C 42.740 160.742,42.647 160.479,42.480 160.156 C 42.314 159.834,42.134 159.570,42.080 159.570 C 42.026 159.570,42.119 159.834,42.285 160.156 M357.520 160.156 C 357.353 160.479,357.260 160.742,357.314 160.742 C 357.368 160.742,357.548 160.479,357.715 160.156 C 357.881 159.834,357.974 159.570,357.920 159.570 C 357.866 159.570,357.686 159.834,357.520 160.156 M395.937 161.035 C 395.937 161.250,396.008 161.646,396.094 161.914 C 396.218 162.301,396.250 162.321,396.250 162.012 C 396.250 161.797,396.180 161.401,396.094 161.133 C 395.970 160.746,395.937 160.726,395.937 161.035 M64.990 161.440 C 64.260 161.836,64.305 162.001,65.039 161.621 C 65.361 161.454,65.625 161.276,65.625 161.225 C 65.625 161.100,65.604 161.107,64.990 161.440 M334.375 161.220 C 334.375 161.274,334.639 161.454,334.961 161.621 C 335.283 161.788,335.547 161.880,335.547 161.826 C 335.547 161.773,335.283 161.592,334.961 161.426 C 334.639 161.259,334.375 161.167,334.375 161.220 M33.496 163.281 C 33.663 163.604,33.843 163.867,33.897 163.867 C 33.950 163.867,33.858 163.604,33.691 163.281 C 33.525 162.959,33.344 162.695,33.291 162.695 C 33.237 162.695,33.329 162.959,33.496 163.281 M366.309 163.281 C 366.142 163.604,366.050 163.867,366.103 163.867 C 366.157 163.867,366.337 163.604,366.504 163.281 C 366.671 162.959,366.763 162.695,366.709 162.695 C 366.656 162.695,366.475 162.959,366.309 163.281 M397.116 167.480 C 397.116 167.803,397.184 168.330,397.266 168.652 C 397.472 169.465,397.481 168.665,397.277 167.676 C 397.141 167.019,397.115 166.988,397.116 167.480 M1.612 174.902 C 1.614 175.332,1.654 175.485,1.701 175.242 C 1.747 174.999,1.746 174.647,1.697 174.461 C 1.648 174.274,1.610 174.473,1.612 174.902 M145.950 175.140 C 146.247 175.185,146.686 175.184,146.927 175.137 C 147.167 175.091,146.924 175.054,146.387 175.056 C 145.850 175.057,145.653 175.095,145.950 175.140 M253.177 175.140 C 253.473 175.185,253.913 175.184,254.153 175.137 C 254.393 175.091,254.150 175.054,253.613 175.056 C 253.076 175.057,252.880 175.095,253.177 175.140 M398.295 175.781 C 398.295 176.265,398.333 176.462,398.380 176.221 C 398.427 175.979,398.427 175.583,398.380 175.342 C 398.333 175.100,398.295 175.298,398.295 175.781 M1.413 176.367 C 1.413 176.743,1.453 176.897,1.502 176.709 C 1.551 176.521,1.551 176.213,1.502 176.025 C 1.453 175.837,1.413 175.991,1.413 176.367 M398.483 177.344 C 398.483 177.720,398.523 177.874,398.572 177.686 C 398.621 177.498,398.621 177.190,398.572 177.002 C 398.523 176.814,398.483 176.968,398.483 177.344 M138.271 178.467 L 137.598 179.199 138.330 178.526 C 139.012 177.900,139.152 177.734,139.003 177.734 C 138.971 177.734,138.641 178.064,138.271 178.467 M261.523 178.418 C 261.888 178.794,262.230 179.102,262.284 179.102 C 262.337 179.102,262.083 178.794,261.719 178.418 C 261.354 178.042,261.012 177.734,260.959 177.734 C 260.905 177.734,261.159 178.042,261.523 178.418 M0.831 182.324 C 0.833 182.754,0.873 182.907,0.919 182.664 C 0.966 182.421,0.964 182.069,0.915 181.882 C 0.867 181.696,0.828 181.895,0.831 182.324 M43.164 182.301 C 43.164 182.511,43.745 183.594,43.858 183.594 C 43.911 183.594,43.810 183.308,43.633 182.959 C 43.270 182.246,43.164 182.097,43.164 182.301 M356.386 182.913 C 356.207 183.287,356.101 183.594,356.150 183.594 C 356.284 183.594,356.877 182.398,356.788 182.309 C 356.745 182.266,356.564 182.538,356.386 182.913 M399.073 183.691 C 399.075 184.121,399.115 184.274,399.162 184.031 C 399.208 183.788,399.207 183.436,399.158 183.250 C 399.109 183.063,399.071 183.262,399.073 183.691 M0.646 184.668 C 0.648 185.313,0.684 185.553,0.727 185.202 C 0.771 184.851,0.770 184.323,0.725 184.030 C 0.681 183.736,0.645 184.023,0.646 184.668 M399.281 186.328 C 399.281 187.026,399.317 187.312,399.360 186.963 C 399.403 186.614,399.403 186.042,399.360 185.693 C 399.317 185.344,399.281 185.630,399.281 186.328 M135.021 186.426 C 135.023 187.070,135.059 187.310,135.102 186.959 C 135.146 186.608,135.145 186.081,135.100 185.788 C 135.056 185.494,135.020 185.781,135.021 186.426 M264.904 186.426 C 264.905 187.070,264.942 187.310,264.985 186.959 C 265.029 186.608,265.028 186.081,264.983 185.788 C 264.939 185.494,264.903 185.781,264.904 186.426 M157.673 186.426 C 157.675 186.963,157.712 187.159,157.757 186.863 C 157.802 186.566,157.801 186.126,157.755 185.886 C 157.708 185.646,157.672 185.889,157.673 186.426 M242.243 186.426 C 242.245 186.963,242.283 187.159,242.328 186.863 C 242.373 186.566,242.371 186.126,242.325 185.886 C 242.279 185.646,242.242 185.889,242.243 186.426 M0.456 187.500 C 0.456 188.306,0.491 188.635,0.533 188.232 C 0.575 187.830,0.575 187.170,0.533 186.768 C 0.491 186.365,0.456 186.694,0.456 187.500 M399.483 189.355 C 399.483 190.322,399.516 190.742,399.557 190.289 C 399.598 189.836,399.598 189.045,399.558 188.531 C 399.517 188.018,399.484 188.389,399.483 189.355 M0.259 190.723 C 0.260 191.475,0.296 191.758,0.338 191.353 C 0.380 190.948,0.379 190.333,0.336 189.986 C 0.293 189.639,0.259 189.971,0.259 190.723 M399.681 193.652 C 399.681 194.727,399.714 195.141,399.754 194.574 C 399.793 194.006,399.793 193.127,399.753 192.620 C 399.713 192.114,399.680 192.578,399.681 193.652 M0.085 199.902 C 0.085 202.803,0.113 204.016,0.146 202.600 C 0.179 201.183,0.179 198.810,0.146 197.326 C 0.113 195.843,0.086 197.002,0.085 199.902 M51.270 198.438 C 51.436 198.760,51.616 199.023,51.670 199.023 C 51.724 199.023,51.631 198.760,51.465 198.438 C 51.298 198.115,51.118 197.852,51.064 197.852 C 51.010 197.852,51.103 198.115,51.270 198.438 M348.535 198.438 C 348.369 198.760,348.276 199.023,348.330 199.023 C 348.384 199.023,348.564 198.760,348.730 198.438 C 348.897 198.115,348.990 197.852,348.936 197.852 C 348.882 197.852,348.702 198.115,348.535 198.438 M51.270 201.563 C 51.103 201.885,51.010 202.148,51.064 202.148 C 51.118 202.148,51.298 201.885,51.465 201.563 C 51.631 201.240,51.724 200.977,51.670 200.977 C 51.616 200.977,51.436 201.240,51.270 201.563 M348.535 201.563 C 348.702 201.885,348.882 202.148,348.936 202.148 C 348.990 202.148,348.897 201.885,348.730 201.563 C 348.564 201.240,348.384 200.977,348.330 200.977 C 348.276 200.977,348.369 201.240,348.535 201.563 M399.681 206.348 C 399.681 207.422,399.714 207.836,399.754 207.269 C 399.793 206.701,399.793 205.822,399.753 205.316 C 399.713 204.809,399.680 205.273,399.681 206.348 M0.259 209.473 C 0.260 210.225,0.296 210.508,0.338 210.103 C 0.380 209.698,0.379 209.083,0.336 208.736 C 0.293 208.389,0.259 208.721,0.259 209.473 M399.484 210.547 C 399.484 211.567,399.517 211.985,399.558 211.475 C 399.598 210.964,399.598 210.129,399.558 209.619 C 399.517 209.109,399.484 209.526,399.484 210.547 M0.458 212.598 C 0.458 213.457,0.493 213.784,0.534 213.325 C 0.575 212.866,0.575 212.162,0.533 211.762 C 0.491 211.362,0.457 211.738,0.458 212.598 M399.281 213.867 C 399.281 214.565,399.317 214.851,399.360 214.502 C 399.403 214.153,399.403 213.582,399.360 213.232 C 399.317 212.883,399.281 213.169,399.281 213.867 M0.646 215.332 C 0.648 215.977,0.684 216.217,0.727 215.866 C 0.771 215.515,0.770 214.987,0.725 214.694 C 0.681 214.400,0.645 214.688,0.646 215.332 M399.073 216.309 C 399.075 216.738,399.115 216.891,399.162 216.648 C 399.208 216.405,399.207 216.054,399.158 215.867 C 399.109 215.680,399.071 215.879,399.073 216.309 M43.448 217.010 C 43.276 217.343,43.170 217.649,43.212 217.691 C 43.255 217.734,43.436 217.462,43.614 217.087 C 44.016 216.245,43.877 216.181,43.448 217.010 M356.386 217.087 C 356.564 217.462,356.745 217.734,356.788 217.691 C 356.877 217.602,356.284 216.406,356.150 216.406 C 356.101 216.406,356.207 216.713,356.386 217.087 M0.831 217.676 C 0.833 218.105,0.873 218.258,0.919 218.015 C 0.966 217.772,0.964 217.421,0.915 217.234 C 0.867 217.047,0.828 217.246,0.831 217.676 M398.483 222.656 C 398.483 223.032,398.523 223.186,398.572 222.998 C 398.621 222.810,398.621 222.502,398.572 222.314 C 398.523 222.126,398.483 222.280,398.483 222.656 M398.295 224.219 C 398.295 224.702,398.333 224.900,398.380 224.658 C 398.427 224.417,398.427 224.021,398.380 223.779 C 398.333 223.538,398.295 223.735,398.295 224.219 M1.612 225.098 C 1.614 225.527,1.654 225.680,1.701 225.437 C 1.747 225.194,1.746 224.843,1.697 224.656 C 1.648 224.469,1.610 224.668,1.612 225.098 M1.803 226.563 C 1.803 226.938,1.843 227.092,1.892 226.904 C 1.942 226.716,1.942 226.409,1.892 226.221 C 1.843 226.033,1.803 226.187,1.803 226.563 M2.754 233.122 C 2.765 233.435,2.848 233.911,2.939 234.180 C 3.051 234.509,3.068 234.350,2.992 233.691 C 2.866 232.593,2.724 232.255,2.754 233.122 M33.496 236.719 C 33.329 237.041,33.237 237.305,33.291 237.305 C 33.344 237.305,33.525 237.041,33.691 236.719 C 33.858 236.396,33.950 236.133,33.897 236.133 C 33.843 236.133,33.663 236.396,33.496 236.719 M366.309 236.719 C 366.475 237.041,366.656 237.305,366.709 237.305 C 366.763 237.305,366.671 237.041,366.504 236.719 C 366.337 236.396,366.157 236.133,366.103 236.133 C 366.050 236.133,366.142 236.396,366.309 236.719 M395.911 238.880 C 395.782 239.538,395.714 240.115,395.761 240.162 C 395.807 240.208,395.951 239.708,396.081 239.049 C 396.210 238.391,396.278 237.815,396.232 237.768 C 396.185 237.721,396.041 238.222,395.911 238.880 M64.453 238.174 C 64.453 238.227,64.717 238.408,65.039 238.574 C 65.361 238.741,65.625 238.833,65.625 238.780 C 65.625 238.726,65.361 238.546,65.039 238.379 C 64.717 238.212,64.453 238.120,64.453 238.174 M334.912 238.393 C 334.182 238.789,334.226 238.954,334.961 238.574 C 335.283 238.408,335.547 238.230,335.547 238.179 C 335.547 238.053,335.526 238.060,334.912 238.393 M3.753 238.574 C 3.750 238.789,3.861 239.404,3.999 239.941 C 4.138 240.479,4.252 240.742,4.255 240.527 C 4.257 240.313,4.146 239.697,4.008 239.160 C 3.870 238.623,3.755 238.359,3.753 238.574 M357.520 239.844 C 357.686 240.166,357.866 240.430,357.920 240.430 C 357.974 240.430,357.881 240.166,357.715 239.844 C 357.548 239.521,357.368 239.258,357.314 239.258 C 357.260 239.258,357.353 239.521,357.520 239.844 M4.922 244.043 C 4.922 244.258,4.992 244.653,5.078 244.922 C 5.202 245.309,5.234 245.329,5.234 245.020 C 5.234 244.805,5.164 244.409,5.078 244.141 C 4.954 243.754,4.922 243.734,4.922 244.043 M394.653 244.751 C 394.585 245.094,394.565 245.411,394.609 245.455 C 394.653 245.500,394.750 245.260,394.824 244.922 C 394.898 244.584,394.918 244.267,394.869 244.218 C 394.819 244.168,394.722 244.408,394.653 244.751 M5.989 248.629 C 6.053 249.002,6.223 249.661,6.367 250.093 C 6.616 250.842,6.622 250.847,6.511 250.200 C 6.447 249.826,6.277 249.167,6.133 248.735 C 5.884 247.986,5.878 247.981,5.989 248.629 M393.677 248.853 C 393.608 249.196,393.588 249.513,393.632 249.557 C 393.677 249.601,393.774 249.361,393.848 249.023 C 393.922 248.686,393.942 248.369,393.892 248.319 C 393.842 248.269,393.745 248.509,393.677 248.853 M147.557 249.027 C 147.489 249.136,147.362 249.181,147.274 249.126 C 147.186 249.072,147.006 249.159,146.873 249.319 C 146.706 249.520,146.699 249.609,146.851 249.609 C 146.972 249.609,147.070 249.516,147.070 249.403 C 147.070 249.289,147.148 249.244,147.243 249.303 C 147.339 249.362,147.525 249.279,147.658 249.119 C 147.791 248.959,147.850 248.828,147.789 248.828 C 147.729 248.828,147.624 248.917,147.557 249.027 M252.317 249.070 C 252.464 249.257,252.661 249.362,252.757 249.303 C 252.852 249.244,252.930 249.289,252.930 249.403 C 252.930 249.516,253.028 249.609,253.149 249.609 C 253.299 249.609,253.290 249.515,253.121 249.312 C 252.985 249.148,252.829 249.059,252.773 249.115 C 252.718 249.170,252.533 249.106,252.362 248.973 C 252.087 248.759,252.082 248.770,252.317 249.070 M108.594 250.676 C 108.594 250.729,108.945 250.953,109.375 251.172 C 109.805 251.391,110.156 251.526,110.156 251.473 C 110.156 251.419,109.805 251.196,109.375 250.977 C 108.945 250.757,108.594 250.622,108.594 250.676 M290.576 250.990 C 290.173 251.203,289.844 251.420,289.844 251.473 C 289.844 251.527,290.195 251.391,290.625 251.172 C 291.055 250.953,291.406 250.731,291.406 250.680 C 291.406 250.552,291.405 250.552,290.576 250.990 M392.690 252.651 C 392.618 252.937,392.597 253.209,392.643 253.255 C 392.689 253.301,392.785 253.104,392.857 252.818 C 392.929 252.532,392.950 252.260,392.904 252.214 C 392.858 252.168,392.762 252.364,392.690 252.651 M7.059 252.734 C 7.059 252.896,7.134 253.203,7.227 253.418 C 7.332 253.664,7.394 253.700,7.394 253.516 C 7.394 253.354,7.319 253.047,7.227 252.832 C 7.121 252.586,7.059 252.550,7.059 252.734 M145.557 253.650 C 145.745 253.699,146.052 253.699,146.240 253.650 C 146.428 253.601,146.274 253.561,145.898 253.561 C 145.522 253.561,145.369 253.601,145.557 253.650 M253.760 253.650 C 253.948 253.699,254.255 253.699,254.443 253.650 C 254.631 253.601,254.478 253.561,254.102 253.561 C 253.726 253.561,253.572 253.601,253.760 253.650 M391.518 256.752 C 391.446 257.038,391.425 257.310,391.471 257.356 C 391.517 257.402,391.613 257.206,391.685 256.920 C 391.757 256.633,391.778 256.362,391.732 256.316 C 391.686 256.269,391.590 256.466,391.518 256.752 M8.233 256.836 C 8.233 256.997,8.351 257.437,8.496 257.813 C 8.641 258.188,8.759 258.364,8.759 258.203 C 8.759 258.042,8.641 257.603,8.496 257.227 C 8.351 256.851,8.233 256.675,8.233 256.836 M27.393 263.416 C 27.581 263.465,27.888 263.465,28.076 263.416 C 28.264 263.367,28.110 263.327,27.734 263.327 C 27.358 263.327,27.205 263.367,27.393 263.416 M371.924 263.416 C 372.112 263.465,372.419 263.465,372.607 263.416 C 372.795 263.367,372.642 263.327,372.266 263.327 C 371.890 263.327,371.736 263.367,371.924 263.416 M388.108 267.209 C 387.987 267.554,387.923 267.871,387.965 267.913 C 388.007 267.955,388.139 267.706,388.260 267.361 C 388.380 267.016,388.444 266.699,388.402 266.658 C 388.361 266.616,388.228 266.864,388.108 267.209 M11.635 267.383 C 11.707 267.651,11.847 268.003,11.947 268.164 C 12.073 268.368,12.088 268.308,11.997 267.969 C 11.926 267.700,11.785 267.349,11.686 267.188 C 11.560 266.984,11.545 267.043,11.635 267.383 M199.463 269.281 C 199.758 269.325,200.242 269.325,200.537 269.281 C 200.833 269.236,200.591 269.199,200.000 269.199 C 199.409 269.199,199.167 269.236,199.463 269.281 M12.807 270.508 C 12.879 270.776,13.019 271.128,13.119 271.289 C 13.245 271.493,13.260 271.433,13.169 271.094 C 13.097 270.825,12.957 270.474,12.858 270.313 C 12.732 270.109,12.716 270.168,12.807 270.508 M386.740 270.920 C 386.620 271.265,386.556 271.582,386.598 271.624 C 386.639 271.665,386.772 271.417,386.892 271.072 C 387.013 270.727,387.077 270.410,387.035 270.369 C 386.993 270.327,386.861 270.575,386.740 270.920 M385.764 273.459 C 385.644 273.804,385.579 274.121,385.621 274.163 C 385.663 274.205,385.795 273.956,385.916 273.611 C 386.036 273.266,386.100 272.949,386.059 272.908 C 386.017 272.866,385.884 273.114,385.764 273.459 M383.625 278.622 C 383.298 279.340,383.361 279.493,383.715 278.840 C 383.880 278.535,383.978 278.249,383.934 278.205 C 383.889 278.160,383.750 278.348,383.625 278.622 M16.225 279.004 C 16.225 279.111,16.350 279.419,16.504 279.688 C 16.657 279.956,16.783 280.088,16.783 279.980 C 16.783 279.873,16.657 279.565,16.504 279.297 C 16.350 279.028,16.225 278.896,16.225 279.004 M17.201 281.152 C 17.201 281.260,17.327 281.567,17.480 281.836 C 17.634 282.104,17.760 282.236,17.760 282.129 C 17.760 282.021,17.634 281.714,17.480 281.445 C 17.327 281.177,17.201 281.045,17.201 281.152 M382.258 281.747 C 381.931 282.465,381.993 282.618,382.347 281.965 C 382.513 281.660,382.611 281.374,382.567 281.330 C 382.522 281.285,382.383 281.473,382.258 281.747 M18.180 283.301 C 18.180 283.408,18.349 283.804,18.555 284.180 C 18.761 284.556,18.929 284.775,18.929 284.668 C 18.929 284.561,18.761 284.165,18.555 283.789 C 18.349 283.413,18.180 283.193,18.180 283.301 M381.187 284.091 C 380.729 285.053,380.793 285.217,381.273 284.308 C 381.491 283.895,381.634 283.522,381.592 283.480 C 381.550 283.438,381.368 283.713,381.187 284.091 M380.019 286.624 C 379.840 286.998,379.734 287.305,379.783 287.305 C 379.917 287.305,380.510 286.109,380.421 286.019 C 380.378 285.977,380.197 286.249,380.019 286.624 M19.548 286.230 C 19.548 286.338,19.716 286.733,19.922 287.109 C 20.128 287.485,20.296 287.705,20.296 287.598 C 20.296 287.490,20.128 287.095,19.922 286.719 C 19.716 286.343,19.548 286.123,19.548 286.230 M378.946 288.774 C 378.712 289.255,378.562 289.648,378.612 289.648 C 378.744 289.648,379.533 288.062,379.445 287.974 C 379.404 287.933,379.179 288.293,378.946 288.774 M21.034 289.353 C 21.213 289.728,21.394 289.999,21.436 289.957 C 21.525 289.868,20.933 288.672,20.799 288.672 C 20.750 288.672,20.856 288.978,21.034 289.353 M377.969 290.727 C 377.735 291.208,377.585 291.602,377.635 291.602 C 377.768 291.602,378.557 290.015,378.468 289.927 C 378.427 289.886,378.203 290.246,377.969 290.727 M21.973 291.211 C 22.139 291.533,22.320 291.797,22.373 291.797 C 22.427 291.797,22.335 291.533,22.168 291.211 C 22.001 290.889,21.821 290.625,21.767 290.625 C 21.714 290.625,21.806 290.889,21.973 291.211 M375.684 295.117 C 375.517 295.439,375.425 295.703,375.478 295.703 C 375.532 295.703,375.712 295.439,375.879 295.117 C 376.046 294.795,376.138 294.531,376.084 294.531 C 376.031 294.531,375.850 294.795,375.684 295.117 M24.121 295.313 C 24.288 295.635,24.468 295.898,24.522 295.898 C 24.575 295.898,24.483 295.635,24.316 295.313 C 24.150 294.990,23.969 294.727,23.916 294.727 C 23.862 294.727,23.954 294.990,24.121 295.313 M373.145 299.609 C 372.978 299.932,372.885 300.195,372.939 300.195 C 372.993 300.195,373.173 299.932,373.340 299.609 C 373.506 299.287,373.599 299.023,373.545 299.023 C 373.491 299.023,373.311 299.287,373.145 299.609 M26.660 299.805 C 26.827 300.127,27.007 300.391,27.061 300.391 C 27.115 300.391,27.022 300.127,26.855 299.805 C 26.689 299.482,26.509 299.219,26.455 299.219 C 26.401 299.219,26.494 299.482,26.660 299.805 M372.340 301.025 C 371.668 302.166,371.624 302.263,371.966 301.855 C 372.363 301.383,372.705 300.781,372.577 300.781 C 372.526 300.781,372.419 300.891,372.340 301.025 M27.514 301.270 C 27.619 301.484,27.849 301.836,28.024 302.051 L 28.342 302.441 28.150 302.051 C 28.045 301.836,27.815 301.484,27.640 301.270 L 27.322 300.879 27.514 301.270 M103.320 301.247 C 103.320 301.456,103.901 302.539,104.014 302.539 C 104.068 302.539,103.966 302.253,103.789 301.904 C 103.426 301.191,103.320 301.043,103.320 301.247 M296.230 301.858 C 296.051 302.233,295.945 302.539,295.994 302.539 C 296.128 302.539,296.721 301.343,296.631 301.254 C 296.589 301.211,296.408 301.483,296.230 301.858 M371.168 302.979 C 370.496 304.119,370.452 304.217,370.794 303.809 C 371.191 303.336,371.533 302.734,371.405 302.734 C 371.354 302.734,371.247 302.844,371.168 302.979 M28.686 303.223 C 28.791 303.438,29.021 303.789,29.196 304.004 L 29.514 304.395 29.322 304.004 C 29.216 303.789,28.987 303.438,28.812 303.223 L 28.494 302.832 28.686 303.223 M32.006 308.496 C 32.112 308.711,32.341 309.063,32.516 309.277 L 32.834 309.668 32.642 309.277 C 32.537 309.063,32.307 308.711,32.132 308.496 L 31.814 308.105 32.006 308.496 M34.375 312.109 C 34.604 312.432,34.836 312.695,34.890 312.695 C 34.944 312.695,34.800 312.432,34.570 312.109 C 34.341 311.787,34.109 311.523,34.055 311.523 C 34.002 311.523,34.146 311.787,34.375 312.109 M362.891 315.625 C 362.661 315.947,362.517 316.211,362.571 316.211 C 362.625 316.211,362.856 315.947,363.086 315.625 C 363.315 315.303,363.459 315.039,363.406 315.039 C 363.352 315.039,363.120 315.303,362.891 315.625 M186.084 315.737 C 185.354 316.133,185.398 316.298,186.133 315.918 C 186.455 315.751,186.719 315.573,186.719 315.522 C 186.719 315.397,186.698 315.404,186.084 315.737 M213.281 315.517 C 213.281 315.571,213.545 315.751,213.867 315.918 C 214.189 316.085,214.453 316.177,214.453 316.123 C 214.453 316.070,214.189 315.889,213.867 315.723 C 213.545 315.556,213.281 315.464,213.281 315.517 M38.086 317.383 C 38.315 317.705,38.547 317.969,38.601 317.969 C 38.655 317.969,38.511 317.705,38.281 317.383 C 38.052 317.061,37.820 316.797,37.766 316.797 C 37.713 316.797,37.856 317.061,38.086 317.383 M360.742 318.555 C 360.513 318.877,360.369 319.141,360.423 319.141 C 360.476 319.141,360.708 318.877,360.938 318.555 C 361.167 318.232,361.311 317.969,361.257 317.969 C 361.203 317.969,360.972 318.232,360.742 318.555 M39.063 318.750 C 39.292 319.072,39.524 319.336,39.577 319.336 C 39.631 319.336,39.487 319.072,39.258 318.750 C 39.028 318.428,38.797 318.164,38.743 318.164 C 38.689 318.164,38.833 318.428,39.063 318.750 M40.230 320.307 C 40.457 320.626,40.743 320.948,40.865 321.024 C 40.987 321.099,40.840 320.838,40.540 320.444 C 39.887 319.588,39.641 319.479,40.230 320.307 M358.762 321.240 C 358.200 321.919,357.962 322.266,358.058 322.266 C 358.112 322.266,358.391 321.958,358.678 321.582 C 359.210 320.884,359.275 320.621,358.762 321.240 M41.492 321.939 C 41.792 322.334,42.078 322.656,42.126 322.656 C 42.262 322.656,41.416 321.514,41.166 321.359 C 41.044 321.284,41.191 321.545,41.492 321.939 M171.436 321.628 C 172.000 321.668,172.922 321.668,173.486 321.628 C 174.050 321.589,173.589 321.557,172.461 321.557 C 171.333 321.557,170.872 321.589,171.436 321.628 M226.514 321.628 C 227.078 321.668,228.000 321.668,228.564 321.628 C 229.128 321.589,228.667 321.557,227.539 321.557 C 226.411 321.557,225.950 321.589,226.514 321.628 M158.945 321.825 C 159.836 321.861,161.242 321.861,162.070 321.825 C 162.897 321.788,162.168 321.759,160.449 321.759 C 158.730 321.759,158.053 321.789,158.945 321.825 M238.046 321.825 C 238.938 321.861,240.344 321.861,241.171 321.825 C 241.999 321.788,241.270 321.759,239.551 321.759 C 237.832 321.759,237.155 321.789,238.046 321.825 M146.240 322.020 C 147.126 322.057,148.577 322.057,149.463 322.020 C 150.349 321.984,149.624 321.955,147.852 321.955 C 146.079 321.955,145.354 321.984,146.240 322.020 M250.537 322.020 C 251.423 322.057,252.874 322.057,253.760 322.020 C 254.646 321.984,253.921 321.955,252.148 321.955 C 250.376 321.955,249.651 321.984,250.537 322.020 M132.285 322.216 C 133.230 322.252,134.724 322.252,135.605 322.215 C 136.486 322.179,135.713 322.150,133.887 322.150 C 132.061 322.150,131.340 322.180,132.285 322.216 M264.512 322.216 C 265.457 322.252,266.951 322.252,267.832 322.215 C 268.713 322.179,267.939 322.150,266.113 322.150 C 264.287 322.150,263.566 322.180,264.512 322.216 M117.441 322.411 C 118.278 322.448,119.596 322.447,120.370 322.410 C 121.144 322.373,120.459 322.343,118.848 322.344 C 117.236 322.344,116.603 322.374,117.441 322.411 M279.745 322.411 C 280.583 322.448,281.901 322.447,282.675 322.410 C 283.449 322.373,282.764 322.343,281.152 322.344 C 279.541 322.344,278.908 322.374,279.745 322.411 M357.389 322.998 C 356.502 324.047,355.594 325.254,355.772 325.148 C 356.007 325.007,357.881 322.656,357.758 322.656 C 357.714 322.656,357.548 322.810,357.389 322.998 M44.529 325.779 C 44.868 326.207,45.248 326.620,45.372 326.697 C 45.497 326.774,45.260 326.424,44.846 325.919 C 44.432 325.413,44.053 325.000,44.003 325.000 C 43.953 325.000,44.190 325.350,44.529 325.779 M351.786 329.801 C 350.259 331.582,349.098 332.985,349.204 332.919 C 349.535 332.715,354.803 326.563,354.648 326.563 C 354.600 326.563,353.312 328.020,351.786 329.801 M51.327 333.740 C 52.079 334.573,52.941 335.474,53.242 335.742 C 53.543 336.011,52.966 335.330,51.958 334.229 C 50.951 333.127,50.089 332.227,50.043 332.227 C 49.997 332.227,50.574 332.908,51.327 333.740 M347.940 334.229 L 347.168 335.059 347.998 334.287 C 348.770 333.569,348.918 333.398,348.770 333.398 C 348.738 333.398,348.365 333.772,347.940 334.229 M345.600 336.768 L 344.238 338.184 345.654 336.822 C 346.969 335.557,347.160 335.352,347.016 335.352 C 346.987 335.352,346.349 335.989,345.600 336.768 M55.856 338.525 C 57.757 340.476,58.008 340.714,58.008 340.573 C 58.008 340.544,57.063 339.599,55.908 338.473 L 53.809 336.426 55.856 338.525 M341.208 341.357 L 338.379 344.238 341.260 341.409 C 342.844 339.853,344.141 338.556,344.141 338.528 C 344.141 338.388,343.837 338.681,341.208 341.357 M61.325 343.994 C 62.451 345.149,63.395 346.094,63.424 346.094 C 63.565 346.094,63.327 345.843,61.377 343.942 L 59.277 341.895 61.325 343.994 M335.645 346.625 C 334.203 348.020,333.902 348.361,334.863 347.510 C 335.723 346.749,336.818 345.723,337.297 345.231 C 338.896 343.586,338.015 344.330,335.645 346.625 M64.355 346.856 C 65.004 347.566,67.578 349.891,67.578 349.766 C 67.578 349.723,66.721 348.906,65.674 347.951 C 64.626 346.996,64.033 346.503,64.355 346.856 M332.021 349.951 L 331.348 350.684 332.080 350.011 C 332.762 349.384,332.902 349.219,332.753 349.219 C 332.721 349.219,332.391 349.548,332.021 349.951 M329.635 351.928 C 327.414 353.854,327.150 354.215,329.241 352.467 C 330.789 351.172,331.448 350.548,331.213 350.599 C 331.180 350.606,330.470 351.204,329.635 351.928 M73.303 354.628 C 73.467 354.893,75.000 356.130,75.000 355.997 C 75.000 355.947,74.587 355.568,74.081 355.154 C 73.576 354.740,73.226 354.503,73.303 354.628 M319.922 359.789 C 319.241 360.386,319.241 360.387,319.867 359.970 C 320.213 359.740,320.548 359.468,320.611 359.366 C 320.799 359.061,320.643 359.157,319.922 359.789 M82.031 361.399 C 82.031 361.453,82.295 361.685,82.617 361.914 C 82.939 362.144,83.203 362.287,83.203 362.234 C 83.203 362.180,82.939 361.948,82.617 361.719 C 82.295 361.489,82.031 361.345,82.031 361.399 M316.895 362.029 L 316.309 362.532 316.943 362.112 C 317.292 361.881,317.578 361.654,317.578 361.608 C 317.578 361.462,317.495 361.513,316.895 362.029 M315.527 363.005 L 314.941 363.509 315.576 363.089 C 315.925 362.858,316.211 362.631,316.211 362.584 C 316.211 362.438,316.128 362.489,315.527 363.005 M85.352 363.743 C 85.352 363.797,85.615 364.028,85.938 364.258 C 86.260 364.487,86.523 364.631,86.523 364.577 C 86.523 364.524,86.260 364.292,85.938 364.063 C 85.615 363.833,85.352 363.689,85.352 363.743 M313.574 364.373 L 312.988 364.876 313.623 364.456 C 313.972 364.225,314.258 363.998,314.258 363.952 C 314.258 363.805,314.175 363.856,313.574 364.373 M310.449 366.521 L 309.863 367.024 310.498 366.604 C 310.847 366.373,311.133 366.146,311.133 366.100 C 311.133 365.954,311.050 366.005,310.449 366.521 M90.723 367.484 C 90.938 367.659,91.289 367.888,91.504 367.994 L 91.895 368.186 91.504 367.868 C 91.289 367.693,90.938 367.463,90.723 367.358 L 90.332 367.166 90.723 367.484 M306.885 368.772 C 306.219 369.199,306.004 369.485,306.592 369.162 C 307.040 368.915,307.742 368.373,307.617 368.369 C 307.563 368.367,307.234 368.549,306.885 368.772 M94.434 369.828 C 94.648 370.003,95.000 370.232,95.215 370.338 L 95.605 370.529 95.215 370.211 C 95.000 370.036,94.648 369.807,94.434 369.701 L 94.043 369.510 94.434 369.828 M303.660 370.776 C 302.722 371.353,302.460 371.625,303.223 371.231 C 303.835 370.915,304.661 370.325,304.492 370.325 C 304.438 370.325,304.064 370.528,303.660 370.776 M101.367 373.916 C 101.367 373.969,101.631 374.150,101.953 374.316 C 102.275 374.483,102.539 374.575,102.539 374.522 C 102.539 374.468,102.275 374.288,101.953 374.121 C 101.631 373.954,101.367 373.862,101.367 373.916 M295.459 375.502 C 294.729 375.898,294.773 376.063,295.508 375.684 C 295.830 375.517,296.094 375.339,296.094 375.288 C 296.094 375.162,296.073 375.169,295.459 375.502 M105.664 376.259 C 105.664 376.313,105.928 376.494,106.250 376.660 C 106.572 376.827,106.836 376.919,106.836 376.866 C 106.836 376.812,106.572 376.631,106.250 376.465 C 105.928 376.298,105.664 376.206,105.664 376.259 M293.115 376.771 C 292.712 376.984,292.383 377.201,292.383 377.255 C 292.383 377.308,292.734 377.172,293.164 376.953 C 293.594 376.734,293.945 376.512,293.945 376.461 C 293.945 376.333,293.944 376.334,293.115 376.771 M291.357 377.651 C 290.627 378.047,290.672 378.212,291.406 377.832 C 291.729 377.665,291.992 377.487,291.992 377.436 C 291.992 377.311,291.971 377.318,291.357 377.651 M108.203 377.635 C 108.203 377.769,109.399 378.361,109.488 378.272 C 109.531 378.230,109.259 378.049,108.884 377.870 C 108.510 377.692,108.203 377.586,108.203 377.635 M110.156 378.612 C 110.156 378.744,111.743 379.533,111.831 379.445 C 111.872 379.404,111.512 379.179,111.031 378.946 C 110.550 378.712,110.156 378.562,110.156 378.612 M286.133 380.273 C 285.757 380.479,285.537 380.648,285.645 380.648 C 285.752 380.648,286.147 380.479,286.523 380.273 C 286.899 380.068,287.119 379.899,287.012 379.899 C 286.904 379.899,286.509 380.068,286.133 380.273 M115.625 381.348 C 115.894 381.501,116.201 381.627,116.309 381.627 C 116.416 381.627,116.284 381.501,116.016 381.348 C 115.747 381.194,115.439 381.069,115.332 381.069 C 115.225 381.069,115.356 381.194,115.625 381.348 M117.969 382.422 C 118.345 382.628,118.740 382.796,118.848 382.796 C 118.955 382.796,118.735 382.628,118.359 382.422 C 117.983 382.216,117.588 382.048,117.480 382.048 C 117.373 382.048,117.593 382.216,117.969 382.422 M281.543 382.411 C 281.113 382.615,280.817 382.788,280.884 382.797 C 281.074 382.821,282.422 382.233,282.422 382.126 C 282.422 381.995,282.421 381.996,281.543 382.411 M120.484 383.500 C 121.062 383.775,121.571 383.963,121.615 383.918 C 121.660 383.874,121.319 383.685,120.858 383.499 C 119.521 382.959,119.344 382.959,120.484 383.500 M279.102 383.496 C 278.833 383.650,278.701 383.775,278.809 383.775 C 278.916 383.775,279.224 383.650,279.492 383.496 C 279.761 383.343,279.893 383.217,279.785 383.217 C 279.678 383.217,279.370 383.343,279.102 383.496 M122.656 384.456 C 122.925 384.600,123.364 384.772,123.633 384.839 C 123.901 384.905,123.770 384.791,123.340 384.584 C 122.456 384.159,121.908 384.057,122.656 384.456 M273.438 385.840 C 273.169 385.993,273.037 386.119,273.145 386.119 C 273.252 386.119,273.560 385.993,273.828 385.840 C 274.097 385.686,274.229 385.561,274.121 385.561 C 274.014 385.561,273.706 385.686,273.438 385.840 M270.410 387.019 C 269.922 387.254,269.905 387.281,270.313 387.181 C 270.866 387.046,271.488 386.729,271.191 386.733 C 271.084 386.735,270.732 386.863,270.410 387.019 M131.445 387.858 C 131.606 387.957,131.958 388.097,132.227 388.169 C 132.566 388.260,132.625 388.245,132.422 388.119 C 132.261 388.019,131.909 387.879,131.641 387.807 C 131.301 387.716,131.242 387.732,131.445 387.858 M267.285 388.190 C 266.797 388.426,266.780 388.453,267.188 388.353 C 267.741 388.218,268.363 387.901,268.066 387.905 C 267.959 387.907,267.607 388.035,267.285 388.190 M134.766 389.030 C 134.927 389.129,135.278 389.269,135.547 389.341 C 135.886 389.432,135.946 389.417,135.742 389.291 C 135.581 389.191,135.229 389.051,134.961 388.979 C 134.622 388.888,134.562 388.904,134.766 389.030 M138.477 390.332 C 138.853 390.477,139.292 390.595,139.453 390.595 C 139.614 390.595,139.438 390.477,139.063 390.332 C 138.687 390.187,138.247 390.069,138.086 390.069 C 137.925 390.069,138.101 390.187,138.477 390.332 M141.895 391.406 C 142.109 391.499,142.417 391.574,142.578 391.574 C 142.763 391.574,142.727 391.512,142.480 391.406 C 142.266 391.314,141.958 391.238,141.797 391.238 C 141.612 391.238,141.648 391.300,141.895 391.406 M257.031 391.504 C 256.655 391.649,256.479 391.767,256.641 391.767 C 256.802 391.767,257.241 391.649,257.617 391.504 C 257.993 391.359,258.169 391.241,258.008 391.241 C 257.847 391.241,257.407 391.359,257.031 391.504 M145.996 392.578 C 146.211 392.670,146.519 392.746,146.680 392.746 C 146.864 392.746,146.828 392.684,146.582 392.578 C 146.367 392.486,146.060 392.410,145.898 392.410 C 145.714 392.410,145.750 392.472,145.996 392.578 M252.637 392.773 C 252.391 392.879,252.354 392.941,252.539 392.941 C 252.700 392.941,253.008 392.866,253.223 392.773 C 253.469 392.668,253.505 392.606,253.320 392.606 C 253.159 392.606,252.852 392.681,252.637 392.773 M248.535 393.855 C 247.765 394.121,247.764 394.124,248.438 394.010 C 249.234 393.876,250.049 393.578,249.609 393.582 C 249.448 393.584,248.965 393.706,248.535 393.855 M154.395 394.727 C 154.609 394.819,154.961 394.892,155.176 394.889 C 155.490 394.884,155.471 394.852,155.078 394.727 C 154.410 394.513,153.897 394.513,154.395 394.727 M243.945 394.922 C 243.559 395.046,243.538 395.078,243.848 395.078 C 244.062 395.078,244.458 395.008,244.727 394.922 C 245.113 394.798,245.134 394.766,244.824 394.766 C 244.609 394.766,244.214 394.836,243.945 394.922 M160.645 396.094 C 161.471 396.304,162.180 396.304,161.523 396.094 C 161.255 396.008,160.815 395.939,160.547 395.941 C 160.108 395.944,160.118 395.960,160.645 396.094 M166.016 397.061 C 166.504 397.227,167.716 397.330,167.562 397.193 C 167.517 397.153,167.041 397.070,166.504 397.008 C 165.845 396.932,165.686 396.949,166.016 397.061 M231.738 397.266 C 230.926 397.472,231.725 397.481,232.715 397.277 C 233.372 397.141,233.403 397.115,232.910 397.116 C 232.588 397.116,232.061 397.184,231.738 397.266 M173.291 398.182 C 173.479 398.231,173.787 398.231,173.975 398.182 C 174.163 398.132,174.009 398.092,173.633 398.092 C 173.257 398.092,173.103 398.132,173.291 398.182 M224.805 398.242 C 223.999 398.367,223.983 398.380,224.609 398.397 C 224.985 398.407,225.645 398.342,226.074 398.253 C 227.083 398.045,226.129 398.036,224.805 398.242 M174.758 398.380 C 175.001 398.427,175.353 398.425,175.539 398.376 C 175.726 398.327,175.527 398.289,175.098 398.291 C 174.668 398.294,174.515 398.334,174.758 398.380 M176.221 398.572 C 176.409 398.621,176.716 398.621,176.904 398.572 C 177.092 398.523,176.938 398.483,176.563 398.483 C 176.187 398.483,176.033 398.523,176.221 398.572 M180.127 398.963 C 180.315 399.012,180.623 399.012,180.811 398.963 C 180.999 398.914,180.845 398.873,180.469 398.873 C 180.093 398.873,179.939 398.914,180.127 398.963 M182.375 399.162 C 182.618 399.208,182.970 399.207,183.157 399.158 C 183.343 399.109,183.145 399.071,182.715 399.073 C 182.285 399.075,182.132 399.115,182.375 399.162 M216.750 399.162 C 216.993 399.208,217.345 399.207,217.532 399.158 C 217.718 399.109,217.520 399.071,217.090 399.073 C 216.660 399.075,216.507 399.115,216.750 399.162 M184.521 399.360 C 184.871 399.403,185.442 399.403,185.791 399.360 C 186.140 399.317,185.854 399.281,185.156 399.281 C 184.458 399.281,184.172 399.317,184.521 399.360 M214.212 399.360 C 214.564 399.404,215.091 399.403,215.384 399.358 C 215.678 399.314,215.391 399.278,214.746 399.279 C 214.102 399.280,213.861 399.317,214.212 399.360 M187.261 399.557 C 187.720 399.599,188.424 399.598,188.824 399.556 C 189.224 399.514,188.848 399.480,187.988 399.481 C 187.129 399.482,186.802 399.516,187.261 399.557 M211.284 399.557 C 211.744 399.599,212.447 399.598,212.847 399.556 C 213.247 399.514,212.871 399.480,212.012 399.481 C 211.152 399.482,210.825 399.516,211.284 399.557 M190.777 399.753 C 191.236 399.794,191.939 399.793,192.339 399.751 C 192.739 399.709,192.363 399.676,191.504 399.676 C 190.645 399.677,190.317 399.711,190.777 399.753 M207.574 399.753 C 208.033 399.794,208.736 399.793,209.136 399.751 C 209.536 399.709,209.160 399.676,208.301 399.676 C 207.441 399.677,207.114 399.711,207.574 399.753 M198.398 399.950 C 199.289 399.986,200.696 399.986,201.523 399.950 C 202.350 399.913,201.621 399.884,199.902 399.884 C 198.184 399.884,197.507 399.914,198.398 399.950  M -25 0 L -5 0 L -5 20 L -25 20 Z M 405 0 L 425 0 L 425 20 L 405 20 Z" stroke="none" fill="#72b0c6" fill-rule="evenodd" transform="translate(950,0)"></path><path id="path3" d="M194.478 0.336 C 194.825 0.379,195.440 0.380,195.845 0.338 C 196.250 0.296,195.967 0.260,195.215 0.259 C 194.463 0.259,194.131 0.293,194.478 0.336 M203.667 0.339 C 204.127 0.380,204.830 0.379,205.230 0.337 C 205.630 0.295,205.254 0.262,204.395 0.262 C 203.535 0.263,203.208 0.297,203.667 0.339 M190.283 0.525 C 190.471 0.574,190.779 0.574,190.967 0.525 C 191.155 0.476,191.001 0.436,190.625 0.436 C 190.249 0.436,190.095 0.476,190.283 0.525 M208.743 0.529 C 208.985 0.575,209.337 0.574,209.524 0.525 C 209.710 0.476,209.512 0.438,209.082 0.440 C 208.652 0.442,208.500 0.482,208.743 0.529 M339.941 57.617 C 340.361 58.047,340.748 58.398,340.802 58.398 C 340.856 58.398,340.556 58.047,340.137 57.617 C 339.717 57.188,339.330 56.836,339.276 56.836 C 339.222 56.836,339.522 57.188,339.941 57.617 M342.285 59.961 C 342.705 60.391,343.092 60.742,343.146 60.742 C 343.199 60.742,342.900 60.391,342.480 59.961 C 342.061 59.531,341.674 59.180,341.620 59.180 C 341.566 59.180,341.866 59.531,342.285 59.961 M138.623 77.876 C 138.972 77.919,139.543 77.919,139.893 77.876 C 140.242 77.832,139.956 77.797,139.258 77.797 C 138.560 77.797,138.274 77.832,138.623 77.876 M260.107 77.876 C 260.457 77.919,261.028 77.919,261.377 77.876 C 261.726 77.832,261.440 77.797,260.742 77.797 C 260.044 77.797,259.758 77.832,260.107 77.876 M152.100 78.068 C 152.341 78.114,152.737 78.114,152.979 78.068 C 153.220 78.021,153.022 77.983,152.539 77.983 C 152.056 77.983,151.858 78.021,152.100 78.068 M247.021 78.068 C 247.263 78.114,247.659 78.114,247.900 78.068 C 248.142 78.021,247.944 77.983,247.461 77.983 C 246.978 77.983,246.780 78.021,247.021 78.068 M164.791 78.266 C 165.137 78.309,165.753 78.310,166.158 78.268 C 166.563 78.225,166.279 78.190,165.527 78.189 C 164.775 78.188,164.444 78.223,164.791 78.266 M233.736 78.266 C 234.083 78.309,234.698 78.310,235.103 78.268 C 235.508 78.225,235.225 78.190,234.473 78.189 C 233.721 78.188,233.389 78.223,233.736 78.266 M399.459 191.602 C 399.459 191.978,399.500 192.131,399.549 191.943 C 399.598 191.755,399.598 191.448,399.549 191.260 C 399.500 191.072,399.459 191.226,399.459 191.602 M0.241 192.578 C 0.241 192.954,0.281 193.108,0.330 192.920 C 0.379 192.732,0.379 192.424,0.330 192.236 C 0.281 192.048,0.241 192.202,0.241 192.578 M399.693 200.000 C 399.693 202.524,399.721 203.557,399.755 202.295 C 399.789 201.033,399.789 198.967,399.755 197.705 C 399.721 196.443,399.693 197.476,399.693 200.000 M0.251 207.324 C 0.253 207.861,0.291 208.058,0.335 207.761 C 0.380 207.464,0.379 207.025,0.333 206.784 C 0.286 206.544,0.250 206.787,0.251 207.324 M164.791 321.821 C 165.137 321.864,165.753 321.865,166.158 321.822 C 166.563 321.780,166.279 321.745,165.527 321.744 C 164.775 321.743,164.444 321.778,164.791 321.821 M233.736 321.821 C 234.083 321.864,234.698 321.865,235.103 321.822 C 235.508 321.780,235.225 321.745,234.473 321.744 C 233.721 321.743,233.389 321.778,233.736 321.821 M152.100 322.013 C 152.341 322.059,152.737 322.059,152.979 322.013 C 153.220 321.966,153.022 321.928,152.539 321.928 C 152.056 321.928,151.858 321.966,152.100 322.013 M247.021 322.013 C 247.263 322.059,247.659 322.059,247.900 322.013 C 248.142 321.966,247.944 321.928,247.461 321.928 C 246.978 321.928,246.780 321.966,247.021 322.013 M138.623 322.212 C 138.972 322.255,139.543 322.255,139.893 322.212 C 140.242 322.168,139.956 322.133,139.258 322.133 C 138.560 322.133,138.274 322.168,138.623 322.212 M260.107 322.212 C 260.457 322.255,261.028 322.255,261.377 322.212 C 261.726 322.168,261.440 322.133,260.742 322.133 C 260.044 322.133,259.758 322.168,260.107 322.212 M343.544 338.818 L 342.871 339.551 343.604 338.878 C 344.006 338.508,344.336 338.178,344.336 338.145 C 344.336 337.996,344.171 338.137,343.544 338.818 M338.661 343.701 L 337.988 344.434 338.721 343.761 C 339.402 343.134,339.543 342.969,339.394 342.969 C 339.361 342.969,339.032 343.298,338.661 343.701 M193.411 399.750 C 193.708 399.794,194.147 399.793,194.387 399.747 C 194.628 399.701,194.385 399.664,193.848 399.665 C 193.311 399.667,193.114 399.705,193.411 399.750 M205.615 399.747 C 205.857 399.794,206.252 399.794,206.494 399.747 C 206.736 399.701,206.538 399.663,206.055 399.663 C 205.571 399.663,205.374 399.701,205.615 399.747  M -25 0 L -5 0 L -5 20 L -25 20 Z M 405 0 L 425 0 L 425 20 L 405 20 Z" stroke="none" fill="#519dbc" fill-rule="evenodd" transform="translate(30,460)"></path><path id="path4" d="M198.105 0.341 C 199.051 0.377,200.545 0.377,201.426 0.340 C 202.307 0.304,201.533 0.275,199.707 0.275 C 197.881 0.275,197.160 0.305,198.105 0.341 M191.553 0.528 C 191.794 0.575,192.190 0.575,192.432 0.528 C 192.673 0.482,192.476 0.444,191.992 0.444 C 191.509 0.444,191.311 0.482,191.553 0.528 M207.471 0.525 C 207.659 0.574,207.966 0.574,208.154 0.525 C 208.342 0.476,208.188 0.436,207.813 0.436 C 207.437 0.436,207.283 0.476,207.471 0.525 M61.719 55.762 C 61.244 56.245,60.900 56.641,60.954 56.641 C 61.008 56.641,61.440 56.245,61.914 55.762 C 62.388 55.278,62.733 54.883,62.679 54.883 C 62.625 54.883,62.193 55.278,61.719 55.762 M55.664 61.816 C 55.190 62.300,54.845 62.695,54.899 62.695 C 54.953 62.695,55.385 62.300,55.859 61.816 C 56.334 61.333,56.678 60.938,56.624 60.938 C 56.571 60.938,56.138 61.333,55.664 61.816 M344.922 62.756 C 344.922 62.790,345.208 63.076,345.557 63.391 L 346.191 63.965 345.618 63.330 C 345.083 62.738,344.922 62.606,344.922 62.756 M127.686 77.682 C 128.142 77.723,128.889 77.723,129.346 77.682 C 129.802 77.641,129.429 77.607,128.516 77.607 C 127.603 77.607,127.229 77.641,127.686 77.682 M270.855 77.682 C 271.314 77.724,272.017 77.723,272.417 77.681 C 272.817 77.639,272.441 77.605,271.582 77.606 C 270.723 77.607,270.395 77.641,270.855 77.682 M142.236 77.877 C 142.639 77.919,143.298 77.919,143.701 77.877 C 144.104 77.835,143.774 77.800,142.969 77.800 C 142.163 77.800,141.833 77.835,142.236 77.877 M256.299 77.877 C 256.702 77.919,257.361 77.919,257.764 77.877 C 258.167 77.835,257.837 77.800,257.031 77.800 C 256.226 77.800,255.896 77.835,256.299 77.877 M155.133 78.073 C 155.646 78.114,156.437 78.113,156.891 78.072 C 157.344 78.031,156.924 77.998,155.957 77.999 C 154.990 78.000,154.619 78.033,155.133 78.073 M243.219 78.073 C 243.732 78.114,244.523 78.113,244.977 78.072 C 245.430 78.031,245.010 77.998,244.043 77.999 C 243.076 78.000,242.705 78.033,243.219 78.073 M167.725 78.269 C 168.289 78.308,169.211 78.308,169.775 78.269 C 170.339 78.230,169.878 78.197,168.750 78.197 C 167.622 78.197,167.161 78.230,167.725 78.269 M229.932 78.267 C 230.334 78.309,230.994 78.309,231.396 78.267 C 231.799 78.225,231.470 78.191,230.664 78.191 C 229.858 78.191,229.529 78.225,229.932 78.267 M0.444 190.234 C 0.444 190.718,0.482 190.916,0.528 190.674 C 0.575 190.432,0.575 190.037,0.528 189.795 C 0.482 189.553,0.444 189.751,0.444 190.234 M399.470 193.066 C 399.471 193.604,399.509 193.800,399.554 193.503 C 399.599 193.206,399.598 192.767,399.552 192.527 C 399.505 192.286,399.468 192.529,399.470 193.066 M0.273 196.289 C 0.273 197.847,0.303 198.484,0.340 197.705 C 0.377 196.926,0.377 195.652,0.340 194.873 C 0.303 194.094,0.273 194.731,0.273 196.289 M0.273 203.711 C 0.273 205.269,0.303 205.906,0.340 205.127 C 0.377 204.348,0.377 203.074,0.340 202.295 C 0.303 201.516,0.273 202.153,0.273 203.711 M399.470 206.934 C 399.471 207.471,399.509 207.667,399.554 207.370 C 399.599 207.073,399.598 206.634,399.552 206.394 C 399.505 206.154,399.468 206.396,399.470 206.934 M0.440 209.863 C 0.442 210.293,0.482 210.446,0.529 210.203 C 0.575 209.960,0.574 209.608,0.525 209.422 C 0.476 209.235,0.438 209.434,0.440 209.863 M167.725 321.824 C 168.289 321.863,169.211 321.863,169.775 321.824 C 170.339 321.784,169.878 321.752,168.750 321.752 C 167.622 321.752,167.161 321.784,167.725 321.824 M229.932 321.822 C 230.334 321.864,230.994 321.864,231.396 321.822 C 231.799 321.780,231.470 321.745,230.664 321.745 C 229.858 321.745,229.529 321.780,229.932 321.822 M155.133 322.019 C 155.646 322.059,156.437 322.059,156.891 322.018 C 157.344 321.977,156.924 321.944,155.957 321.944 C 154.990 321.945,154.619 321.978,155.133 322.019 M243.219 322.019 C 243.732 322.059,244.523 322.059,244.977 322.018 C 245.430 321.977,245.010 321.944,244.043 321.944 C 243.076 321.945,242.705 321.978,243.219 322.019 M142.236 322.213 C 142.639 322.255,143.298 322.255,143.701 322.213 C 144.104 322.170,143.774 322.136,142.969 322.136 C 142.163 322.136,141.833 322.170,142.236 322.213 M256.299 322.213 C 256.702 322.255,257.361 322.255,257.764 322.213 C 258.167 322.170,257.837 322.136,257.031 322.136 C 256.226 322.136,255.896 322.170,256.299 322.213 M127.686 322.409 C 128.142 322.450,128.889 322.450,129.346 322.409 C 129.802 322.368,129.429 322.334,128.516 322.334 C 127.603 322.334,127.229 322.368,127.686 322.409 M270.855 322.409 C 271.314 322.450,272.017 322.450,272.417 322.408 C 272.817 322.366,272.441 322.332,271.582 322.333 C 270.723 322.333,270.395 322.368,270.855 322.409 M51.758 334.045 C 51.758 334.079,52.043 334.365,52.393 334.680 L 53.027 335.254 52.454 334.619 C 51.919 334.027,51.758 333.895,51.758 334.045 M341.406 340.918 C 340.606 341.724,339.995 342.383,340.049 342.383 C 340.103 342.383,340.801 341.724,341.602 340.918 C 342.402 340.112,343.013 339.453,342.959 339.453 C 342.905 339.453,342.207 340.112,341.406 340.918 M190.674 399.549 C 190.862 399.598,191.169 399.598,191.357 399.549 C 191.545 399.500,191.392 399.459,191.016 399.459 C 190.640 399.459,190.486 399.500,190.674 399.549 M208.350 399.552 C 208.591 399.598,208.987 399.598,209.229 399.552 C 209.470 399.505,209.272 399.467,208.789 399.467 C 208.306 399.467,208.108 399.505,208.350 399.552 M197.314 399.755 C 198.792 399.789,201.208 399.789,202.686 399.755 C 204.163 399.722,202.954 399.695,200.000 399.695 C 197.046 399.695,195.837 399.722,197.314 399.755  M -25 0 L -5 0 L -5 20 L -25 20 Z M 405 0 L 425 0 L 425 20 L 405 20 Z" stroke="none" fill="#4c9cb4" fill-rule="evenodd" transform="translate(490,460)"></path></g></svg>